<svg width="24" height="24" viewBox="0 0 24 24" fill="none" xmlns="http://www.w3.org/2000/svg">
<path fill-rule="evenodd" clip-rule="evenodd" d="M3.77703 7.37549H3.77714H3.77725C3.95155 7.37463 4.12756 7.37376 4.30613 7.37375V7.67764C4.30613 8.48938 4.30565 9.30089 4.30517 10.1123C4.30373 12.546 4.30229 14.9787 4.31383 17.4135C4.31767 18.2097 4.35614 19.0175 4.46385 19.8061C4.61387 20.8908 5.24856 21.6102 6.3487 21.8025C7.02571 21.9217 7.7181 21.9756 8.4028 21.9833C10.6031 22.0064 12.8072 22.0025 15.0113 21.991C15.7383 21.9871 16.4692 21.9564 17.1924 21.891C18.5887 21.7602 19.3273 21.0793 19.5542 19.6984C19.6465 19.1329 19.6811 18.5482 19.6811 17.9751C19.6927 14.5439 19.6927 11.1165 19.6927 7.68533V7.36991C19.8723 7.36991 20.0479 7.37035 20.2209 7.37078C20.5593 7.37163 20.8876 7.37245 21.216 7.36991C21.5583 7.36606 21.8314 7.17757 21.9468 6.88138C22.1507 6.36209 21.7737 5.8351 21.189 5.8351H16.9116H16.6538C16.6391 5.62589 16.6275 5.41944 16.616 5.21525L16.616 5.21518C16.5915 4.78113 16.5677 4.35725 16.5154 3.93871C16.3846 2.91935 15.8153 2.31542 14.8036 2.13463C14.3035 2.04231 13.7842 2 13.2765 2L12.9721 2.00176C11.8108 2.00826 10.644 2.0148 9.48371 2.09617C8.4105 2.1731 7.76426 2.78087 7.54116 3.76561C7.48346 4.02333 7.45268 4.28875 7.43345 4.55032C7.41362 4.82054 7.40177 5.09236 7.38968 5.3699C7.38301 5.523 7.37626 5.67783 7.36806 5.8351H7.10264H2.89827C2.8021 5.8351 2.70209 5.8351 2.60977 5.85433C2.22895 5.93896 1.97123 6.28515 2.002 6.66597C2.03277 7.05448 2.35204 7.36606 2.75209 7.37375C3.09149 7.37886 3.43089 7.37719 3.77703 7.37549ZM5.85207 7.47548C5.85412 7.44794 5.85633 7.41827 5.85633 7.38529V7.3776H18.1617V7.57378C18.1604 8.72783 18.1604 9.88189 18.1604 11.0359C18.1604 13.3439 18.1604 15.6518 18.1502 17.9597C18.1467 18.4519 18.0909 18.944 18.0352 19.4362L18.0155 19.6099C17.9694 20.0176 17.7194 20.2677 17.3116 20.3061L17.1027 20.3258C16.5107 20.3815 15.9187 20.4373 15.3267 20.4408C13.0111 20.46 10.6954 20.4562 8.37972 20.4408C7.87378 20.4373 7.36784 20.3815 6.8619 20.3258L6.68336 20.3061C6.28331 20.2638 6.04097 20.0215 5.99481 19.6214C5.98646 19.5526 5.9779 19.4837 5.96935 19.4149C5.91478 18.9759 5.86018 18.5366 5.86018 18.0943C5.84864 14.5786 5.84864 11.059 5.84864 7.54322V7.543C5.84864 7.52158 5.85029 7.49933 5.85207 7.47548ZM15.0802 5.41785C15.0852 5.55089 15.0902 5.68586 15.096 5.82356H8.93364C8.93483 5.72586 8.93501 5.62817 8.93518 5.53056V5.53052V5.53047C8.93614 4.99782 8.9371 4.46771 9.10289 3.95409C9.14136 3.83869 9.30292 3.70791 9.42601 3.68098C9.78375 3.60789 10.153 3.54635 10.5185 3.54635C11.7186 3.53865 12.9188 3.55019 14.1189 3.58097C14.869 3.6002 14.9921 3.74253 15.0383 4.50031C15.0571 4.80259 15.0685 5.10487 15.0802 5.41778L15.0802 5.41785ZM8.1556 12.7515C8.15603 13.1311 8.15645 13.5107 8.15645 13.8903H8.15261V17.2105C8.15261 17.7914 8.44115 18.1453 8.9182 18.1492C9.39526 18.153 9.69534 17.7952 9.69534 17.222V14.7444V10.5125C9.69534 10.1662 9.56069 9.90459 9.24522 9.75455C8.72969 9.51217 8.15645 9.88535 8.15645 10.474C8.15389 11.2332 8.15474 11.9923 8.1556 12.7515ZM11.2338 13.8942V10.551C11.2338 10.0393 11.5454 9.68923 11.9956 9.68538C12.4611 9.68538 12.7727 10.0316 12.7727 10.5625V17.2952C12.7727 17.803 12.4534 18.1531 11.9994 18.1493C11.5454 18.1493 11.2338 17.7953 11.2338 17.2836V13.8942ZM15.8501 17.3452V13.9289H15.8463V10.6087C15.8463 10.0355 15.55 9.68157 15.073 9.68157C14.5959 9.68541 14.3074 10.0394 14.3074 10.6203V11.9206V17.3068C14.3074 17.6107 14.4074 17.8608 14.6652 18.0262C14.9152 18.1878 15.1807 18.1993 15.4423 18.057C15.7232 17.9031 15.8501 17.6607 15.8501 17.3452Z" fill="#3F5D7C"/>
</svg>
