<svg width="24" height="24" viewBox="0 0 24 24" fill="none" xmlns="http://www.w3.org/2000/svg">
    <path fill-rule="evenodd" clip-rule="evenodd" d="M11.9998 1.90909C9.80571 1.90909 7.70151 2.78068 6.15008 4.33211C4.59864 5.88355 3.72705 7.98775 3.72705 10.1818C3.72705 11.1124 3.82578 11.9368 4.08534 12.7199C4.34638 13.5074 4.75353 14.2033 5.31037 14.8981C5.31839 14.9081 5.3266 14.918 5.335 14.9277L11.2441 21.7458C11.434 21.965 11.7098 22.0909 11.9998 22.0909C12.2898 22.0909 12.5655 21.965 12.7555 21.7458L18.6646 14.9277C18.673 14.918 18.6812 14.9081 18.6892 14.8981C19.246 14.2033 19.6532 13.5074 19.9142 12.7199C20.1738 11.9368 20.2725 11.1124 20.2725 10.1818C20.2725 7.98775 19.4009 5.88355 17.8495 4.33211C16.298 2.78068 14.1938 1.90909 11.9998 1.90909ZM7.56429 5.74633C8.74065 4.56996 10.3361 3.90909 11.9998 3.90909C13.6634 3.90909 15.2589 4.56996 16.4353 5.74633C17.6116 6.92269 18.2725 8.51818 18.2725 10.1818C18.2725 10.9712 18.1885 11.5695 18.0158 12.0906C17.8461 12.6026 17.5747 13.088 17.1402 13.6327L11.9998 19.564L6.85933 13.6327C6.42481 13.088 6.15348 12.6026 5.98376 12.0906C5.81105 11.5695 5.72705 10.9712 5.72705 10.1818C5.72705 8.51818 6.38793 6.92269 7.56429 5.74633ZM10.2725 10.1818C10.2725 9.22787 11.0458 8.45454 11.9998 8.45454C12.9537 8.45454 13.7271 9.22787 13.7271 10.1818C13.7271 11.1358 12.9537 11.9091 11.9998 11.9091C11.0458 11.9091 10.2725 11.1358 10.2725 10.1818ZM11.9998 6.45454C9.94126 6.45454 8.27251 8.1233 8.27251 10.1818C8.27251 12.2403 9.94126 13.9091 11.9998 13.9091C14.0583 13.9091 15.7271 12.2403 15.7271 10.1818C15.7271 8.1233 14.0583 6.45454 11.9998 6.45454Z" fill="#3F5D7C"/>
</svg>