<svg width="24" height="24" viewBox="0 0 24 24" fill="none" xmlns="http://www.w3.org/2000/svg">
<path d="M10.8424 22C9.20605 22 7.56665 22 5.93034 22C4.79513 22 4.05895 21.2607 4.05895 20.1225C4.05895 18.5326 4.05895 16.9397 4.05895 15.3498V12.8444L3.83933 12.7887C3.75272 12.7671 3.66611 12.7485 3.5795 12.7331C3.42174 12.699 3.27018 12.6681 3.14335 12.6155C2.42882 12.3217 2.04836 11.7928 2.01743 11.0473C1.99268 10.4473 1.99887 9.83173 2.00815 9.23786V8.96257C2.02052 7.89236 2.75052 7.16239 3.82695 7.14383C4.00636 7.14383 4.18267 7.14074 4.35899 7.14074C4.51055 7.14074 4.65903 7.14074 4.8075 7.14074C4.94979 7.14074 5.08898 7.14074 5.22509 7.14074H5.60555L5.50657 6.77575C5.46636 6.62109 5.41996 6.46953 5.37356 6.31797C5.27767 5.99629 5.18797 5.69626 5.13538 5.38695C4.87246 3.82184 5.76021 2.4021 7.19855 2.08351C7.45838 2.03093 7.72131 2 7.97495 2C8.773 2 9.53393 2.29075 10.2392 2.85988C10.8083 3.32075 11.2568 3.93319 11.6095 4.7343C11.6342 4.78689 11.659 4.83947 11.6868 4.90442L11.7363 5.0065L11.9961 5.56635L12.259 5.00959C12.2931 4.93535 12.3271 4.86421 12.358 4.79616C12.4199 4.66007 12.4818 4.53325 12.5436 4.41262C13.187 3.18157 14.0346 2.44231 15.1295 2.14847C15.4945 2.04949 15.8441 2 16.1689 2C17.0102 2 17.7 2.32787 18.2723 2.99907C18.8136 3.63625 19.0146 4.44046 18.8692 5.39313C18.8228 5.69935 18.73 6.00247 18.6342 6.32416C18.5909 6.47263 18.5445 6.62728 18.5012 6.78194L18.4022 7.14692H19.6116C19.791 7.14692 19.9704 7.14692 20.1529 7.14692C20.6509 7.14692 21.053 7.28921 21.3809 7.57996C21.783 7.93257 21.981 8.34705 21.9903 8.84194C22.0027 9.60285 22.0027 10.2926 21.9934 10.9545C21.9779 11.9505 21.3222 12.6496 20.3231 12.7362C20.2983 12.7362 20.2705 12.7423 20.2333 12.7516L20.1931 12.7609L19.9704 12.8042L19.9611 13.03C19.9611 13.0578 19.9611 13.0888 19.955 13.1166C19.9519 13.1878 19.9457 13.262 19.9457 13.3393C19.9457 14.193 19.9457 15.0467 19.9457 15.9004C19.9457 17.3047 19.9457 18.7089 19.9457 20.1132C19.9457 21.004 19.4631 21.6969 18.6867 21.9165C18.5104 21.966 18.3063 21.9907 18.0774 21.9938C15.6647 21.9938 13.252 21.9969 10.8393 21.9969L10.8424 22ZM12.754 20.5122H18.4455V12.7516H12.754V20.5122ZM5.55297 20.5122H11.2445V12.7485H5.55297V20.5122ZM3.48979 11.2515H11.2538V8.64398H3.48979V11.2515ZM12.7385 9.29972C12.7385 9.81627 12.7385 10.3235 12.7385 10.8308C12.7385 10.8772 12.7447 10.9205 12.7509 10.9545C12.7509 10.9669 12.754 10.9793 12.7571 10.9947L12.788 11.2484H20.5117V8.64398H12.7385V9.29663V9.29972ZM15.9895 3.49088C15.3213 3.49088 14.7212 3.80637 14.2109 4.42499C13.716 5.02505 13.4221 5.75812 13.2612 6.79431L13.2056 7.16239L13.5768 7.12836C13.6881 7.11908 13.7995 7.10981 13.9046 7.10053C14.1428 7.07887 14.3686 7.06032 14.5975 7.02938C15.21 6.94587 15.9183 6.81905 16.537 6.40458C17.1494 5.99629 17.4278 5.36839 17.3474 4.58893C17.2886 4.03217 16.8587 3.58985 16.3019 3.51253C16.1967 3.49706 16.0915 3.49088 15.9926 3.49088H15.9895ZM7.87906 3.4816C7.20165 3.4816 6.6789 3.93628 6.57991 4.61367C6.46546 5.39932 6.85212 6.12929 7.59139 6.52521C8.43893 6.9768 9.33596 7.04485 10.2856 7.11908L10.7372 7.15311L10.6722 6.78503C10.5021 5.8138 10.199 4.71574 9.23389 3.95484C8.88126 3.67646 8.46059 3.51871 7.98732 3.48469C7.95021 3.48469 7.91618 3.4816 7.88215 3.4816H7.87906Z" fill="#3F5D7C"/>
</svg>
