<svg width="24" height="24" viewBox="0 0 24 24" fill="none" xmlns="http://www.w3.org/2000/svg">
    <path d="M4.0017 19.2404C4.0017 15.9518 4.0017 14.7451 4.0017 11.4565C4.0153 11.3992 4.034 11.3436 4.0442 11.2863C4.1173 10.8592 4.30771 10.498 4.61882 10.2046C4.99112 9.85386 5.43314 9.68891 5.93805 9.69586C6.22705 9.69933 6.51606 9.69586 6.82037 9.69586C6.82037 9.09162 6.81527 8.52557 6.82207 7.9578C6.82547 7.67478 6.82887 7.38828 6.87137 7.10873C7.28788 4.37923 9.67814 2.62033 12.3455 3.07004C14.3635 3.41036 16.0244 5.25434 16.157 7.33098C16.2012 8.02378 16.1808 8.72004 16.191 9.41457C16.191 9.50139 16.191 9.58647 16.191 9.69412C16.4936 9.69412 16.7622 9.69412 17.0308 9.69412C18.2072 9.70107 18.9978 10.5032 18.9978 11.7083C19.0012 14.825 19.0012 15.8581 18.9944 18.9748C18.9944 19.2179 18.9604 19.4696 18.8873 19.7006C18.6289 20.5218 17.9318 20.9976 17.0155 20.9976C13.8347 20.9976 10.654 20.9976 7.47319 20.9976C6.91727 20.9976 6.36136 21.0063 5.80544 20.9907C5.02172 20.9681 4.33661 20.4298 4.1037 19.6693C4.0612 19.5287 4.034 19.3811 4 19.2387L4.0017 19.2404ZM14.3618 9.68544C14.3618 8.86589 14.4366 8.0585 14.3448 7.27195C14.1815 5.86205 12.9184 4.81678 11.5074 4.81505C10.0963 4.81505 8.83492 5.85684 8.66321 7.26674C8.56801 8.04635 8.62411 8.84679 8.61221 9.63856C8.61221 9.65071 8.62581 9.66287 8.63771 9.68544H14.3601H14.3618ZM11.5057 13.6061C10.4806 13.6061 9.62374 14.4673 9.61864 15.516C9.61354 16.5613 10.4534 17.426 11.4819 17.4364C12.5104 17.4468 13.3723 16.5682 13.3655 15.5143C13.3587 14.4638 12.5308 13.6043 11.504 13.6043L11.5057 13.6061Z" fill="white"/>
</svg>