<svg width="247" height="84" viewBox="0 0 247 84" fill="none" xmlns="http://www.w3.org/2000/svg">
  <g clip-path="url(#clip0_6_16951)">
    <path d="M87.3167 81.0027V70.6124H91.8245C92.756 70.6124 93.5599 70.7643 94.234 71.0658C94.908 71.3674 95.4298 71.8007 95.7971 72.3635C96.1643 72.9263 96.3479 73.6009 96.3479 74.3826C96.3479 75.1643 96.1643 75.821 95.7971 76.386C95.4298 76.9489 94.908 77.3822 94.234 77.6837C93.5599 77.9852 92.756 78.1371 91.8245 78.1371H88.6558L89.7262 77.0539V81.0005H87.3167V81.0027ZM89.7262 77.3219L88.6558 76.1783H91.6923C92.4358 76.1783 92.9912 76.0198 93.3584 75.7048C93.7257 75.3877 93.9093 74.9477 93.9093 74.3848C93.9093 73.822 93.7257 73.3663 93.3584 73.0492C92.9912 72.732 92.4358 72.5734 91.6923 72.5734H88.6558L89.7262 71.4299V77.3219Z" fill="#00B2AD"/>
    <path d="M101.868 81.1211C101.015 81.1211 100.258 80.9424 99.5995 80.5873C98.9389 80.2322 98.4193 79.743 98.0364 79.1244C97.6557 78.5057 97.4631 77.8021 97.4631 77.0092C97.4631 76.2163 97.6535 75.4971 98.0364 74.8785C98.4171 74.2598 98.9389 73.7751 99.5995 73.4244C100.26 73.0738 101.015 72.8973 101.868 72.8973C102.721 72.8973 103.465 73.0738 104.13 73.4244C104.795 73.7773 105.314 74.2575 105.693 74.8718C106.069 75.486 106.257 76.1985 106.257 77.0092C106.257 77.82 106.069 78.5057 105.693 79.1244C105.317 79.743 104.795 80.2299 104.13 80.5873C103.465 80.9447 102.71 81.1211 101.868 81.1211ZM101.868 79.2204C102.255 79.2204 102.602 79.1311 102.909 78.9524C103.216 78.7737 103.46 78.5191 103.639 78.1885C103.818 77.858 103.908 77.4649 103.908 77.0092C103.908 76.5536 103.818 76.1471 103.639 75.821C103.46 75.4949 103.218 75.2425 102.909 75.0638C102.602 74.8852 102.255 74.7958 101.868 74.7958C101.481 74.7958 101.133 74.8852 100.827 75.0638C100.52 75.2425 100.274 75.4949 100.09 75.821C99.9063 76.1471 99.8144 76.5424 99.8144 77.0092C99.8144 77.476 99.9063 77.858 100.09 78.1885C100.274 78.5191 100.52 78.7759 100.827 78.9524C101.133 79.1288 101.481 79.2204 101.868 79.2204Z" fill="#00B2AD"/>
    <path d="M109.591 81.0027L106.705 73.0179H108.893L111.289 79.8882H110.248L112.747 73.0179H114.711L117.136 79.8882H116.095L118.565 73.0179H120.618L117.716 81.0027H115.47L113.342 75.1107H114.028L111.824 81.0027H109.591Z" fill="#00B2AD"/>
    <path d="M125.632 81.1211C124.718 81.1211 123.919 80.9424 123.229 80.5873C122.539 80.2322 122.006 79.743 121.63 79.1244C121.254 78.5057 121.066 77.8021 121.066 77.0092C121.066 76.2163 121.252 75.4971 121.623 74.8785C121.995 74.2598 122.503 73.7751 123.148 73.4244C123.793 73.0738 124.523 72.8973 125.336 72.8973C126.149 72.8973 126.825 73.0626 127.457 73.3932C128.086 73.726 128.586 74.1995 128.953 74.8182C129.32 75.4368 129.504 76.1761 129.504 77.036C129.504 77.1254 129.499 77.2259 129.488 77.3398C129.477 77.4537 129.468 77.5609 129.459 77.6592H122.956V76.3079H128.238L127.345 76.7077C127.345 76.2923 127.26 75.9327 127.092 75.6245C126.922 75.3185 126.691 75.0772 126.393 74.9053C126.095 74.7333 125.748 74.6462 125.352 74.6462C124.956 74.6462 124.606 74.7333 124.304 74.9053C124.002 75.0795 123.766 75.3207 123.596 75.6334C123.426 75.9461 123.343 76.3146 123.343 76.739V77.0963C123.343 77.5319 123.439 77.916 123.634 78.2466C123.829 78.5771 124.1 78.8295 124.452 79.0037C124.803 79.178 125.218 79.2628 125.695 79.2628C126.122 79.2628 126.496 79.1981 126.819 79.0708C127.141 78.9412 127.437 78.7491 127.705 78.4923L128.939 79.8279C128.572 80.2433 128.111 80.5627 127.555 80.7861C127 81.0094 126.36 81.1211 125.636 81.1211H125.632Z" fill="#00B2AD"/>
    <path d="M131.228 81.0027V73.0179H133.445V75.2737L133.132 74.6216C133.369 74.0587 133.752 73.6299 134.278 73.3373C134.804 73.0447 135.445 72.8995 136.197 72.8995V75.037C136.099 75.0281 136.009 75.0191 135.931 75.0147C135.85 75.0102 135.767 75.008 135.678 75.008C135.042 75.008 134.529 75.1889 134.137 75.5485C133.745 75.9103 133.548 76.4709 133.548 77.2325V81.0027H131.226H131.228Z" fill="#00B2AD"/>
    <path d="M141.659 81.1211C140.745 81.1211 139.946 80.9424 139.256 80.5873C138.566 80.2322 138.033 79.743 137.657 79.1244C137.281 78.5057 137.093 77.8021 137.093 77.0092C137.093 76.2163 137.279 75.4971 137.65 74.8785C138.022 74.2598 138.531 73.7751 139.175 73.4244C139.82 73.0738 140.55 72.8973 141.363 72.8973C142.176 72.8973 142.852 73.0626 143.484 73.3932C144.113 73.726 144.613 74.1995 144.98 74.8182C145.347 75.4368 145.531 76.1761 145.531 77.036C145.531 77.1254 145.526 77.2259 145.515 77.3398C145.504 77.4537 145.495 77.5609 145.486 77.6592H138.983V76.3079H144.266L143.372 76.7077C143.372 76.2923 143.287 75.9327 143.119 75.6245C142.949 75.3185 142.718 75.0772 142.42 74.9053C142.122 74.7333 141.775 74.6462 141.379 74.6462C140.983 74.6462 140.633 74.7333 140.331 74.9053C140.029 75.0795 139.794 75.3207 139.623 75.6334C139.453 75.9461 139.37 76.3146 139.37 76.739V77.0963C139.37 77.5319 139.467 77.916 139.659 78.2466C139.852 78.5771 140.125 78.8295 140.477 79.0037C140.828 79.178 141.242 79.2628 141.719 79.2628C142.147 79.2628 142.521 79.1981 142.844 79.0708C143.166 78.9412 143.462 78.7491 143.73 78.4923L144.964 79.8279C144.597 80.2433 144.136 80.5627 143.58 80.7861C143.025 81.0094 142.384 81.1211 141.661 81.1211H141.659Z" fill="#00B2AD"/>
    <path d="M150.692 81.1211C149.938 81.1211 149.259 80.9513 148.652 80.6096C148.048 80.2679 147.569 79.7899 147.217 79.1779C146.865 78.5637 146.688 77.8423 146.688 77.0114C146.688 76.1805 146.863 75.4435 147.217 74.8293C147.569 74.2151 148.048 73.7416 148.652 73.4043C149.257 73.067 149.938 72.8995 150.692 72.8995C151.366 72.8995 151.958 73.0469 152.464 73.344C152.97 73.641 153.362 74.09 153.639 74.6953C153.917 75.2983 154.056 76.0711 154.056 77.0114C154.056 77.9517 153.922 78.7111 153.655 79.3186C153.386 79.9284 153.003 80.3795 152.502 80.6766C152 80.9737 151.398 81.1211 150.695 81.1211H150.692ZM151.093 79.2204C151.469 79.2204 151.812 79.131 152.119 78.9523C152.426 78.7736 152.672 78.519 152.856 78.1885C153.039 77.8579 153.131 77.4648 153.131 77.0092C153.131 76.5535 153.039 76.147 152.856 75.821C152.672 75.4949 152.426 75.2425 152.119 75.0638C151.812 74.8851 151.469 74.7958 151.093 74.7958C150.717 74.7958 150.359 74.8851 150.052 75.0638C149.745 75.2425 149.499 75.4949 149.315 75.821C149.132 76.147 149.04 76.5424 149.04 77.0092C149.04 77.476 149.132 77.8579 149.315 78.1885C149.499 78.519 149.743 78.7759 150.052 78.9523C150.359 79.131 150.706 79.2204 151.093 79.2204ZM153.192 81.0027V79.37L153.236 76.9958L153.089 74.635V69.9893H155.411V81.0027H153.194H153.192Z" fill="#00B2AD"/>
    <path d="M162.12 81.0027V69.9893H164.442V74.635L164.292 76.9958L164.337 79.37V81.0027H162.12ZM166.851 81.1211C166.148 81.1211 165.541 80.9737 165.035 80.6766C164.529 80.3795 164.142 79.9284 163.875 79.3186C163.607 78.7089 163.472 77.9405 163.472 77.0114C163.472 76.0823 163.613 75.3005 163.896 74.6953C164.178 74.09 164.572 73.641 165.078 73.344C165.584 73.0469 166.175 72.8995 166.849 72.8995C167.604 72.8995 168.28 73.067 168.88 73.4043C169.48 73.7393 169.957 74.2151 170.309 74.8293C170.661 75.4435 170.838 76.1716 170.838 77.0114C170.838 77.8512 170.661 78.5659 170.309 79.1779C169.957 79.7899 169.48 80.2679 168.88 80.6096C168.28 80.9513 167.604 81.1211 166.849 81.1211H166.851ZM166.448 79.2204C166.836 79.2204 167.181 79.131 167.483 78.9523C167.785 78.7736 168.027 78.519 168.211 78.1885C168.394 77.8579 168.486 77.4648 168.486 77.0092C168.486 76.5535 168.394 76.147 168.211 75.821C168.027 75.4949 167.785 75.2425 167.483 75.0638C167.181 74.8851 166.836 74.7958 166.448 74.7958C166.061 74.7958 165.714 74.8851 165.407 75.0638C165.1 75.2425 164.856 75.4949 164.677 75.821C164.498 76.147 164.411 76.5424 164.411 77.0092C164.411 77.476 164.5 77.8579 164.677 78.1885C164.856 78.519 165.098 78.7759 165.407 78.9523C165.714 79.131 166.061 79.2204 166.448 79.2204Z" fill="#00B2AD"/>
    <path d="M173.355 84.0001C172.938 84.0001 172.526 83.9353 172.118 83.808C171.711 83.6785 171.379 83.502 171.122 83.2742L171.971 81.6259C172.15 81.7845 172.354 81.9073 172.586 81.9966C172.819 82.086 173.05 82.1307 173.278 82.1307C173.605 82.1307 173.867 82.0547 174.06 81.9006C174.253 81.7465 174.429 81.4919 174.588 81.1367L175.005 80.1562L175.184 79.9038L178.057 73.0179H180.29L176.673 81.4919C176.416 82.1351 176.12 82.6399 175.789 83.0062C175.457 83.3725 175.09 83.6293 174.687 83.779C174.286 83.9264 173.841 84.0023 173.355 84.0023V84.0001ZM174.723 81.3132L171.151 73.0179H173.547L176.315 79.6961L174.723 81.3132Z" fill="#00B2AD"/>
    <path d="M191.003 81.1791C190.179 81.1791 189.422 81.0473 188.734 80.786C188.045 80.5247 187.445 80.1517 186.934 79.6648C186.423 79.1801 186.027 78.6106 185.743 77.9584C185.458 77.3062 185.319 76.587 185.319 75.8053C185.319 75.0236 185.461 74.3066 185.743 73.6544C186.025 73 186.423 72.4327 186.941 71.948C187.456 71.4634 188.063 71.0904 188.757 70.8268C189.451 70.5655 190.215 70.4337 191.048 70.4337C191.97 70.4337 192.801 70.5878 193.54 70.8938C194.279 71.1998 194.902 71.6465 195.408 72.2295L193.86 73.6544C193.484 73.2591 193.072 72.9643 192.624 72.77C192.176 72.5756 191.693 72.4818 191.166 72.4818C190.64 72.4818 190.199 72.56 189.782 72.7186C189.366 72.8772 189.005 73.105 188.703 73.402C188.401 73.6991 188.168 74.0498 188.004 74.4563C187.841 74.8628 187.758 75.3117 187.758 75.8075C187.758 76.3034 187.841 76.7367 188.004 77.1432C188.168 77.5497 188.401 77.9026 188.703 78.2041C189.005 78.5056 189.364 78.7357 189.774 78.8942C190.183 79.0528 190.638 79.131 191.135 79.131C191.632 79.131 192.076 79.0551 192.526 78.9009C192.976 78.7491 193.415 78.4877 193.842 78.1214L195.211 79.8569C194.646 80.2835 193.988 80.6096 193.24 80.8374C192.492 81.0652 191.744 81.1791 191.001 81.1791H191.003ZM193.012 79.5464V75.6423H195.213V79.8569L193.012 79.5442V79.5464Z" fill="#00B2AD"/>
    <path d="M200.019 79.073H205.689V81.0027H197.622V70.6124H205.494V72.5422H200.019V79.073ZM199.839 74.798H204.853V76.6675H199.839V74.798Z" fill="#00B2AD"/>
    <path d="M207.787 81.0027V70.6124H209.78L215.925 78.0924H214.957V70.6124H217.338V81.0027H215.358L209.198 73.5227H210.165V81.0027H207.785H207.787Z" fill="#00B2AD"/>
    <path d="M222.385 79.073H228.055V81.0027H219.989V70.6124H227.86V72.5422H222.385V79.073ZM222.206 74.798H227.22V76.6675H222.206V74.798Z" fill="#00B2AD"/>
    <path d="M71.6255 20.9235C71.6255 26.5653 67.4469 29.4689 59.4278 29.4689H46.4283V0H59.4278C66.3921 0 69.937 2.65117 69.937 7.53586C69.937 10.5243 68.6292 12.5456 66.054 13.5552C69.7265 14.6496 71.6255 17.1332 71.6255 20.9235ZM59.4278 5.68428H53.6032V11.4088H59.4278C61.5798 11.4088 62.5516 10.4394 62.5516 8.42033C62.5516 6.40123 61.5798 5.68428 59.4278 5.68428ZM64.2401 20.249C64.2401 17.8904 62.7196 16.8384 59.4278 16.8384H53.6032V23.7846H59.4278C62.7196 23.7846 64.2401 22.6478 64.2401 20.249Z" fill="white"/>
    <path d="M96.7801 22.4803C95.5149 27.1104 91.4191 30.1435 85.6371 30.1435C78.6728 30.1435 74.156 25.6809 74.156 18.9447C74.156 12.2084 78.7579 7.74585 85.5946 7.74585C93.4883 7.74585 98.2581 13.6825 95.8105 20.4188H81.248C81.6713 22.9873 83.147 24.4592 85.8073 24.4592C87.5809 24.4592 88.8461 23.7869 89.4799 22.4803H96.7824H96.7801ZM81.3309 16.6285H89.182C89.3925 14.6072 88.1273 13.2179 85.5946 13.2179C83.3575 13.2179 81.8795 14.3548 81.3309 16.6285Z" fill="white"/>
    <path d="M108.512 14.1023V22.1429C108.512 23.4473 109.018 24.4591 110.96 24.4591C112.225 24.4591 113.029 24.0392 114.166 23.3222V29.0892C113.112 29.7637 111.591 30.1411 109.607 30.1411C102.515 30.1411 101.756 25.2565 101.756 22.1429V14.1023H97.4071V8.41804H101.756V2.56848H108.51V8.42027H114.63V14.1046H108.51L108.512 14.1023Z" fill="white"/>
    <path d="M126.575 14.1023V22.1429C126.575 23.4473 127.081 24.4591 129.022 24.4591C130.287 24.4591 131.091 24.0392 132.229 23.3222V29.0892C131.174 29.7637 129.654 30.1411 127.67 30.1411C120.578 30.1411 119.819 25.2565 119.819 22.1429V14.1023H115.47V8.41804H119.819V2.56848H126.572V8.42027H132.693V14.1046H126.572L126.575 14.1023Z" fill="white"/>
    <path d="M156.795 22.4803C155.529 27.1104 151.434 30.1435 145.652 30.1435C138.687 30.1435 134.17 25.6809 134.17 18.9447C134.17 12.2084 138.772 7.74585 145.609 7.74585C153.503 7.74585 158.272 13.6825 155.825 20.4188H141.262C141.686 22.9873 143.161 24.4592 145.822 24.4592C147.595 24.4592 148.861 23.7869 149.494 22.4803H156.797H156.795ZM141.348 16.6285H149.199C149.409 14.6072 148.144 13.2179 145.611 13.2179C143.374 13.2179 141.896 14.3548 141.348 16.6285Z" fill="white"/>
    <path d="M178.319 14.7769C178.319 16.6709 177.856 18.6074 177.054 20.249H170.09C170.934 18.6922 171.44 17.3432 171.44 16.0813C171.44 14.4821 170.638 13.4301 169.33 13.4301C167.474 13.4301 166.081 15.6189 166.081 19.0295V29.4689H159.327V8.42033H166.081V11.8733C167.093 9.3048 169.248 7.74805 172.116 7.74805C175.831 7.74805 178.321 10.4417 178.321 14.7791L178.319 14.7769Z" fill="white"/>
    <path d="M54.6691 47.1717C54.6691 38.3315 60.7467 31.8052 69.8653 31.8052C78.4756 31.8052 84.6383 37.5297 83.288 44.9829H75.9004C76.7446 40.4779 73.9588 37.6994 69.9482 37.6994C64.9679 37.6994 62.0545 42.0346 62.0545 47.1717C62.0545 52.6862 65.2612 56.7289 70.0736 56.7289C73.8715 56.7289 76.4468 54.2028 76.9529 51.0446H84.5084C83.4962 58.2856 77.7971 62.6209 70.0736 62.6209C60.2384 62.6209 54.6669 55.5474 54.6669 47.1695L54.6691 47.1717Z" fill="white"/>
    <path d="M132.455 54.9599C131.19 59.59 127.094 62.6231 121.312 62.6231C114.348 62.6231 109.831 58.1605 109.831 51.4243C109.831 44.688 114.433 40.2255 121.27 40.2255C129.163 40.2255 133.933 46.1621 131.485 52.8984H116.923C117.346 55.4669 118.822 56.941 121.482 56.941C123.256 56.941 124.521 56.2665 125.155 54.9621H132.457L132.455 54.9599ZM117.008 49.1081H124.859C125.07 47.0868 123.804 45.6976 121.272 45.6976C119.035 45.6976 117.557 46.8344 117.008 49.1081Z" fill="white"/>
    <path d="M134.141 51.4243C134.141 44.6456 138.701 40.2255 145.708 40.2255C152.714 40.2255 157.905 44.6456 155.711 51.6767H149.167C150.012 47.9713 148.576 45.9097 145.748 45.9097C142.92 45.9097 141.106 48.0159 141.106 51.3818C141.106 54.7477 142.962 56.9388 145.708 56.9388C147.481 56.9388 148.661 56.0119 149.465 54.54H156.768C155.502 59.4225 151.492 62.6231 145.625 62.6231C138.745 62.6231 134.144 58.1605 134.144 51.4243H134.141Z" fill="white"/>
    <path d="M181.792 61.9486H173.856C173.518 58.4554 171.662 56.3492 169.297 55.6345V51.6343C171.702 51.6343 173.222 50.245 173.222 48.3934C173.222 46.8367 172.125 45.9098 170.394 45.9098C167.819 45.9098 166.048 48.016 166.048 51.5092V61.9486H159.294V33.6478H166.048V44.5607C167.145 41.8671 169.72 40.2255 173.222 40.2255C177.654 40.2255 180.187 42.8342 180.187 46.8345C180.187 49.9502 178.626 52.4339 176.008 53.7807C178.879 55.295 180.946 58.1583 181.79 61.9486H181.792Z" fill="white"/>
    <path d="M182.424 51.4243C182.424 44.688 187.026 40.2255 193.905 40.2255C200.784 40.2255 205.386 44.688 205.386 51.4243C205.386 58.1605 200.784 62.6231 193.905 62.6231C187.026 62.6231 182.424 58.1605 182.424 51.4243ZM198.422 51.4243C198.422 48.0561 196.608 45.9097 193.905 45.9097C191.202 45.9097 189.388 48.0561 189.388 51.4243C189.388 54.7924 191.202 56.9388 193.905 56.9388C196.608 56.9388 198.422 54.75 198.422 51.4243Z" fill="white"/>
    <path d="M227.88 40.8999V61.9485H221.127V58.7903C219.776 61.0216 217.371 62.4533 214.5 62.4533C208.548 62.4533 207.704 56.2642 207.704 52.5589V40.8977H214.458V52.5589C214.458 55.0425 215.049 57.0214 217.243 57.0214C219.649 57.0214 221.127 54.7477 221.127 51.3371V40.8977H227.88V40.8999Z" fill="white"/>
    <path d="M240.88 46.5843V54.6249C240.88 55.9293 241.386 56.9411 243.327 56.9411C244.593 56.9411 245.397 56.5189 246.534 55.8042V61.5711C245.479 62.2456 243.959 62.6231 241.975 62.6231C234.883 62.6231 234.124 57.7407 234.124 54.6249V46.5843H229.775V40.9H234.124V35.0482H240.878V40.9H246.998V46.5843H240.878H240.88Z" fill="white"/>
    <path d="M100.549 40.2255C97.3422 40.2255 95.02 41.8247 94.0078 44.3932V32.5199C92.0349 33.5875 89.7575 34.2576 87.2539 34.4586V61.9486H94.0078V51.5092C94.0078 48.016 95.6537 45.6574 97.9333 45.6574C99.7069 45.6574 100.762 47.0891 100.762 49.2779V61.9508H107.516V49.2779C107.516 43.4686 105.11 40.2255 100.551 40.2255H100.549Z" fill="white"/>
    <path d="M48.1348 48.8356L32.0898 32.8325V48.8356V64.8387L48.1348 48.8356Z" fill="#00B2AD"/>
    <path d="M16.0449 48.8356V64.8387L32.0898 48.8356L16.0449 32.8325V48.8356Z" fill="#00B2AD"/>
    <path d="M0 64.8387L16.0449 48.8356L0 32.8325V64.8387Z" fill="#00B2AD"/>
  </g>
  <defs>
    <clipPath id="clip0_6_16951">
      <rect width="247" height="84" fill="white"/>
    </clipPath>
  </defs>
</svg>

