<svg width="23" height="18" viewBox="0 0 23 18" fill="none" xmlns="http://www.w3.org/2000/svg">
<path fill-rule="evenodd" clip-rule="evenodd" d="M11.0438 13.0513L10.8724 12.9134C9.203 11.4671 8.2435 9.37211 8.2435 7.17008C8.2435 4.96803 9.20727 2.87311 10.8831 1.43031C10.933 1.37893 10.9857 1.33029 11.0409 1.2846C9.92011 0.541064 8.56834 0.109652 7.11478 0.109652C3.20085 0.109652 0.0262451 3.27096 0.0262451 7.17008C0.0262451 11.0728 3.20084 14.2305 7.11908 14.2305C8.51577 14.2338 9.88193 13.8233 11.0438 13.0513ZM11.9588 1.2846C13.1218 0.51431 14.4883 0.105373 15.8849 0.109652C19.7988 0.109652 22.9728 3.27096 22.9728 7.17008C22.9728 11.0728 19.7982 14.2305 15.8799 14.2305C14.4831 14.2343 13.1169 13.8238 11.9552 13.0513C12.0126 13.0057 12.0698 12.9597 12.1266 12.9134C13.796 11.4634 14.7562 9.3693 14.7562 7.17008C14.7556 6.08071 14.5195 5.00423 14.064 4.01382C13.6085 3.02341 12.9443 2.14228 12.1165 1.43031C12.0713 1.38175 12.0154 1.33318 11.9588 1.2846ZM9.50361 4.08624C9.97274 3.12517 10.6554 2.28311 11.4999 1.62388C12.3442 2.28318 13.0268 3.12526 13.4959 4.08631C13.9651 5.04736 14.2085 6.10216 14.2077 7.1708C14.2088 8.18113 13.9915 9.17987 13.5707 10.0991C13.1499 11.0185 12.5353 11.8368 11.7687 12.4984C11.6798 12.5763 11.5938 12.6506 11.4999 12.7213C10.655 12.0617 9.9721 11.2189 9.50297 10.2572C9.03375 9.29558 8.79068 8.24003 8.79208 7.1708C8.79113 6.10215 9.03447 5.04731 9.50361 4.08624ZM4.87264 16.6769V17.8575H4.41999V16.8146C4.41999 16.4998 4.28231 16.3227 4.00677 16.3227C3.75096 16.3227 3.5543 16.4802 3.5543 16.8146V17.8575H3.14108V16.8146C3.14108 16.4998 3.00322 16.3227 2.72786 16.3227C2.45233 16.3227 2.27521 16.4802 2.27521 16.8146V17.8575H1.86199V15.9685H2.27521V16.2046C2.4327 15.9882 2.62936 15.9292 2.82619 15.9292C3.12136 15.9292 3.3181 16.0473 3.45579 16.2637C3.63291 16.0079 3.88873 15.9292 4.12482 15.9292C4.59711 15.9292 4.87264 16.2242 4.87264 16.6769ZM10.3232 15.9685H10.9921V16.3423H10.3232V17.1885C10.3232 17.3853 10.4019 17.5034 10.5986 17.5034C10.697 17.5034 10.8347 17.4837 10.9527 17.4049L11.0709 17.7592C10.933 17.8379 10.7364 17.8969 10.5592 17.8969C10.087 17.8969 9.90984 17.6411 9.90984 17.2082V16.3423H9.53606V15.9685H9.90993V15.398H10.3232V15.9685ZM14.0028 16.2046C14.1011 16.0473 14.2586 15.9291 14.4946 15.9291C14.5734 15.9291 14.6914 15.9292 14.7701 15.9489L14.6521 16.3424C14.5734 16.3228 14.4749 16.303 14.3963 16.303C14.1404 16.303 14.0028 16.4802 14.0028 16.795V17.8575H13.5895V15.9685H14.0028V16.2046ZM8.4341 15.9292C8.72927 15.9292 9.00475 15.9882 9.20155 16.126L9.02447 16.4605C8.90639 16.4014 8.67029 16.303 8.4341 16.303C8.21763 16.303 8.07995 16.3818 8.07995 16.5196C8.07995 16.6376 8.21763 16.6768 8.39475 16.6966L8.5915 16.7163C8.98509 16.7753 9.24091 16.9523 9.24091 17.2869C9.24091 17.6411 8.92602 17.8969 8.37503 17.8969C8.07995 17.8969 7.78478 17.8182 7.56832 17.6607L7.76507 17.3459C7.90283 17.4443 8.1193 17.5427 8.39475 17.5427C8.67029 17.5427 8.82768 17.4443 8.82768 17.3066C8.82768 17.2082 8.70963 17.1491 8.49317 17.1099L8.29642 17.0901C7.8832 17.0311 7.64711 16.8541 7.64711 16.5392C7.64711 16.1653 7.9619 15.9292 8.4341 15.9292ZM19.6894 16.2046C19.7878 16.0473 19.9452 15.9292 20.1814 15.9292C20.26 15.9292 20.3781 15.9292 20.4568 15.9489L20.3387 16.3424C20.26 16.3228 20.1617 16.303 20.0829 16.303C19.8272 16.303 19.6894 16.4802 19.6894 16.795V17.8575H19.2761V15.9685H19.6894V16.2046ZM15.9114 17.8969C15.3014 17.8969 14.9079 17.4837 14.9079 16.913C14.9079 16.3424 15.3014 15.9292 15.9114 15.9292C16.1869 15.9292 16.3836 15.9882 16.5804 16.1457L16.3836 16.4802C16.2263 16.362 16.0688 16.303 15.8917 16.303C15.5572 16.3227 15.3211 16.5588 15.3211 16.913C15.3211 17.2869 15.5572 17.523 15.8917 17.523C16.0688 17.523 16.2263 17.464 16.3836 17.3459L16.5804 17.6804C16.3836 17.8379 16.1869 17.8969 15.9114 17.8969ZM18.7253 15.9685V16.913V17.8575H18.3121V17.6215C18.194 17.7985 17.9972 17.8969 17.7217 17.8969C17.1904 17.8969 16.7772 17.4837 16.7772 16.913C16.7772 16.3424 17.1904 15.9292 17.7217 15.9292C17.9775 15.9292 18.1742 16.0276 18.3121 16.2046V15.9685H18.7253ZM17.7807 16.303C17.4265 16.303 17.2101 16.5785 17.2101 16.913C17.2101 17.2476 17.4265 17.5033 17.7807 17.523C18.1152 17.523 18.3514 17.2476 18.3514 16.913C18.3514 16.5588 18.1152 16.303 17.7807 16.303ZM11.3266 16.913C11.3266 16.3227 11.7202 15.9292 12.2712 15.9292C12.8025 15.9292 13.1567 16.3227 13.137 16.9327V17.0901H11.7398C11.7989 17.4247 12.0547 17.5427 12.3105 17.5427C12.5073 17.5427 12.704 17.464 12.8614 17.3459L13.0582 17.6411C12.8418 17.8182 12.5663 17.8969 12.2909 17.8969C11.7201 17.8969 11.3266 17.5034 11.3266 16.913ZM12.7434 16.736C12.7041 16.4409 12.5269 16.2833 12.2712 16.2833C11.976 16.2833 11.7989 16.4802 11.7596 16.736H12.7434ZM22.5229 15.2208V16.913V17.8575H22.1097V17.6215C21.9917 17.7985 21.7949 17.8969 21.5194 17.8969C20.988 17.8969 20.5748 17.4837 20.5748 16.913C20.5748 16.3424 20.988 15.9292 21.5194 15.9292C21.7751 15.9292 21.9719 16.0276 22.1097 16.2046V15.2208H22.5229ZM21.5784 16.303C21.2242 16.303 21.0078 16.5785 21.0078 16.913C21.0078 17.2476 21.2242 17.5033 21.5784 17.523C21.9129 17.523 22.149 17.2476 22.149 16.913C22.149 16.5588 21.9129 16.303 21.5784 16.303ZM7.19445 15.9685V16.913V17.8575H6.78123V17.6215C6.66318 17.7985 6.46644 17.8969 6.1909 17.8969C5.65963 17.8969 5.24642 17.4837 5.24642 16.913C5.24642 16.3424 5.65963 15.9292 6.1909 15.9292C6.44672 15.9292 6.64347 16.0276 6.78123 16.2046V15.9685H7.19445ZM6.23026 16.303C5.8761 16.303 5.65963 16.5785 5.65963 16.913C5.65963 17.2476 5.8761 17.5033 6.23026 17.523C6.56477 17.523 6.80096 17.2476 6.80096 16.913C6.80096 16.5588 6.56477 16.303 6.23026 16.303Z" fill="white"/>
</svg>
