<svg width="32" height="10" viewBox="0 0 32 10" fill="none" xmlns="http://www.w3.org/2000/svg">
<path fill-rule="evenodd" clip-rule="evenodd" d="M7.77666 9.92559H5.09376L3.08194 2.16789C2.98645 1.81103 2.7837 1.49555 2.48546 1.34686C1.74116 0.973203 0.920999 0.675821 0.0262756 0.525841V0.227166H4.34816C4.94464 0.227166 5.392 0.675821 5.46656 1.19688L6.51041 6.79277L9.192 0.227166H11.8003L7.77666 9.92559ZM13.2915 9.92559H10.7578L12.8442 0.227166H15.3779L13.2915 9.92559ZM18.6559 2.91361C18.7306 2.39125 19.1779 2.09258 19.6998 2.09258C20.52 2.01759 21.4134 2.16757 22.159 2.53995L22.6064 0.451824C21.8608 0.153157 21.0406 0.00317383 20.2963 0.00317383C17.8371 0.00317383 16.0477 1.34655 16.0477 3.21098C16.0477 4.62936 17.3152 5.37409 18.2099 5.82275C19.1779 6.27011 19.5507 6.56878 19.4762 7.01611C19.4762 7.68717 18.7306 7.98586 17.9863 7.98586C17.0915 7.98586 16.1968 7.76215 15.3779 7.38854L14.9305 9.47795C15.8253 9.85031 16.7933 10.0003 17.688 10.0003C20.4454 10.0739 22.159 8.73191 22.159 6.71748C22.159 4.1807 18.6559 4.03201 18.6559 2.91361ZM31.0263 9.92559L29.0144 0.227166H26.8535C26.4062 0.227166 25.9588 0.525841 25.8097 0.973203L22.0843 9.92559H24.6925L25.2132 8.50849H28.4179L28.7162 9.92559H31.0263ZM27.2264 2.83908L27.9707 6.49425H25.8843L27.2264 2.83908Z" fill="white"/>
</svg>
