<svg width="41" height="12" viewBox="0 0 41 12" fill="none" xmlns="http://www.w3.org/2000/svg">
<path fill-rule="evenodd" clip-rule="evenodd" d="M38.0741 0.892956L36.7973 9.01709C36.7722 9.17451 36.8941 9.31642 37.0529 9.31642H38.3366C38.5499 9.31642 38.731 9.16166 38.7638 8.95119L40.023 0.973377C40.0481 0.815901 39.9261 0.673584 39.7674 0.673584H38.3299C38.203 0.674005 38.0937 0.766849 38.0741 0.892956ZM23.9066 0.674006H27.0184C28.0597 0.674006 28.8435 0.948955 29.2854 1.46833C29.6879 1.9416 29.822 2.61719 29.6824 3.47699C29.3732 5.44228 28.1906 6.43407 26.1407 6.43407H25.1563C24.9439 6.43407 24.7624 6.58861 24.7296 6.79934L24.3725 9.06083C24.3493 9.20821 24.2224 9.31642 24.074 9.31642H22.4773C22.3184 9.31642 22.1965 9.17451 22.2215 9.01709L23.4798 1.03885C23.5131 0.828744 23.6942 0.674006 23.9066 0.674006ZM25.5294 4.70437C26.3546 4.70437 27.2077 4.70437 27.3774 3.58794C27.4397 3.19572 27.39 2.91193 27.2267 2.72076C26.953 2.40055 26.4224 2.40055 25.861 2.40055H25.6458C25.518 2.40055 25.4097 2.49339 25.3902 2.61929L25.0603 4.70437H25.5294ZM34.829 3.55215H36.3179C36.4777 3.55215 36.5996 3.69468 36.5749 3.85152L35.7693 8.95092C35.736 9.16146 35.5549 9.31622 35.3425 9.31622H34.001C33.8412 9.31622 33.7193 9.17431 33.7444 9.01599L33.8107 8.60189C33.8107 8.60189 33.0751 9.45498 31.7486 9.45498C30.9758 9.45498 30.3269 9.232 29.8719 8.69704C29.377 8.11512 29.1755 7.28082 29.3174 6.40839C29.5913 4.65911 30.997 3.41214 32.6435 3.41214C33.3614 3.41214 34.0802 3.56857 34.4027 4.03678L34.5073 4.18774L34.5732 3.77109C34.5924 3.64499 34.7011 3.55215 34.829 3.55215ZM32.5602 7.8745C33.4218 7.8745 34.0983 7.30313 34.2412 6.45197C34.3071 6.03976 34.217 5.66586 33.9893 5.39785C33.7625 5.13258 33.4187 4.99217 32.9956 4.99217C32.1471 4.99217 31.461 5.58206 31.326 6.42607C31.2568 6.83997 31.3396 7.21177 31.5597 7.47282C31.7818 7.73581 32.1284 7.8745 32.5602 7.8745ZM1.71508 0.674252H4.82633C5.86761 0.674252 6.65204 0.949201 7.09418 1.46857C7.49687 1.94184 7.63016 2.61743 7.49099 3.47723C7.18195 5.44252 5.99919 6.43432 3.94969 6.43432H2.96478C2.75231 6.43432 2.57079 6.58885 2.53805 6.79959L2.19866 8.9514C2.16546 9.16194 1.98438 9.3167 1.77148 9.3167H0.286132C0.126447 9.3167 0.00452891 9.17479 0.0295393 9.01729L1.2879 1.0391C1.3211 0.82899 1.50217 0.674252 1.71508 0.674252ZM3.33737 4.70462C4.16216 4.70462 5.01518 4.70462 5.18529 3.58818C5.2476 3.19597 5.1975 2.91217 5.03434 2.72101C4.76044 2.4008 4.23039 2.4008 3.66855 2.4008H3.45337C3.32598 2.4008 3.2168 2.49364 3.19725 2.61954L2.86787 4.70462H3.33737ZM12.6368 3.55239H14.1267C14.2858 3.55239 14.4073 3.69492 14.3818 3.85176L13.5765 8.95119C13.5429 9.16173 13.3628 9.31649 13.1494 9.31649H11.8072C11.6485 9.31649 11.5266 9.17458 11.5517 9.01627L11.6182 8.60216C11.6182 8.60216 10.8824 9.45519 9.55584 9.45519C8.783 9.45519 8.13334 9.23227 7.67924 8.69731C7.18427 8.11539 6.98193 7.28107 7.12425 6.40864C7.39816 4.65936 8.80426 3.41239 10.4508 3.41239C11.1687 3.41239 11.8879 3.56881 12.2104 4.03703L12.3147 4.18798L12.3806 3.77134C12.4001 3.64524 12.5098 3.55239 12.6368 3.55239ZM10.3689 7.87478C11.2304 7.87478 11.906 7.30338 12.0498 6.45221C12.1149 6.04 12.0248 5.6661 11.7978 5.3981C11.5713 5.13283 11.2272 4.99241 10.8043 4.99241C9.95587 4.99241 9.26895 5.58231 9.13463 6.42632C9.06449 6.84022 9.1483 7.21201 9.36848 7.47307C9.59036 7.73601 9.93632 7.87478 10.3689 7.87478ZM22.0617 3.55218H20.5644C20.4217 3.55218 20.2874 3.62313 20.2065 3.74186L18.1415 6.78359L17.2663 3.86061C17.2111 3.67766 17.0425 3.55218 16.8513 3.55218H15.3801C15.2012 3.55218 15.077 3.72692 15.134 3.89513L16.7831 8.73477L15.2325 10.9234C15.1107 11.0958 15.2336 11.3329 15.4442 11.3329H16.9395C17.0815 11.3329 17.2143 11.2636 17.2949 11.1472L22.2745 3.95934C22.3937 3.78734 22.2714 3.55218 22.0617 3.55218Z" fill="white"/>
</svg>
