<svg width="34" height="15" viewBox="0 0 34 15" fill="none" xmlns="http://www.w3.org/2000/svg">
<g id="Clip path group">
<mask id="mask0_632_38969" style="mask-type:luminance" maskUnits="userSpaceOnUse" x="0" y="0" width="34" height="15">
<g id="clip0_4966_34406">
<path id="Vector" d="M33.5262 0.273926H0.526245V14.5442H33.5262V0.273926Z" fill="white"/>
</g>
</mask>
<g mask="url(#mask0_632_38969)">
<g id="Group">
<path id="Vector_2" d="M6.55875 2.11372C6.17204 2.59573 5.55329 2.97591 4.93454 2.9216C4.85719 2.26986 5.16013 1.57739 5.51462 1.1497C5.90133 0.654108 6.57809 0.301081 7.12594 0.273926C7.19039 0.952812 6.93903 1.61813 6.55875 2.11372ZM7.1195 3.05059C6.2236 2.99628 5.45661 3.58691 5.03122 3.58691C4.59938 3.58691 3.9484 3.07774 3.23942 3.09132C2.31774 3.10489 1.46051 3.6548 0.990006 4.53056C0.0232094 6.28211 0.738639 8.87544 1.67321 10.3011C2.13082 11.0072 2.67868 11.7811 3.40056 11.7539C4.08376 11.7268 4.35446 11.2855 5.17946 11.2855C6.0109 11.2855 6.24938 11.7539 6.97125 11.7404C7.71891 11.7268 8.18942 11.0344 8.64704 10.3282C9.16911 9.52724 9.38181 8.74648 9.39465 8.70572C9.38181 8.69216 7.95094 8.11511 7.93806 6.37715C7.92516 4.92433 9.06598 4.23185 9.11755 4.19112C8.47301 3.18637 7.46755 3.07774 7.1195 3.05059ZM12.2951 1.08181V11.6657H13.8548V8.04721H16.014C17.9863 8.04721 19.3721 6.62155 19.3721 4.55772C19.3721 2.49389 18.0121 1.08181 16.0656 1.08181H12.2951ZM13.8548 2.46674H15.6531C17.0066 2.46674 17.78 3.2271 17.78 4.56451C17.78 5.90193 17.0066 6.66907 15.6466 6.66907H13.8548V2.46674ZM22.2209 11.7472C23.2005 11.7472 24.1094 11.2244 24.5219 10.3962H24.554V11.6657H25.9978V6.39752C25.9978 4.87001 24.8377 3.88562 23.0523 3.88562C21.3959 3.88562 20.1713 4.88359 20.1262 6.25495H21.5312C21.6472 5.60322 22.2209 5.17551 23.0072 5.17551C23.9611 5.17551 24.4961 5.64395 24.4961 6.50614V7.08998L22.5496 7.21218C20.7384 7.32759 19.7588 8.10832 19.7588 9.46605C19.7588 10.8374 20.7706 11.7472 22.2209 11.7472ZM22.6398 10.4912C21.8084 10.4912 21.2798 10.0703 21.2798 9.42538C21.2798 8.76003 21.789 8.37309 22.7622 8.31198L24.4961 8.19657V8.79401C24.4961 9.78517 23.6968 10.4912 22.6398 10.4912ZM27.925 14.5442C29.4461 14.5442 30.1615 13.9332 30.7867 12.0798L33.5259 3.98746H31.9404L30.1035 10.24H30.0713L28.2344 3.98746H26.6037L29.2463 11.6928L29.1045 12.1613C28.866 12.9556 28.4793 13.2611 27.7897 13.2611C27.6672 13.2611 27.4287 13.2475 27.332 13.2339V14.5035C27.4222 14.5307 27.8089 14.5442 27.925 14.5442Z" fill="white"/>
</g>
</g>
</g>
</svg>
