<svg width="38" height="14" viewBox="0 0 38 14" fill="none" xmlns="http://www.w3.org/2000/svg">
<path fill-rule="evenodd" clip-rule="evenodd" d="M35.0849 0.625H32.4673V1.32361L32.1184 0.625H29.3845V1.32361L29.0356 0.625H25.312C24.6729 0.625 24.1492 0.741436 23.6841 0.974306V0.625H21.0665V0.974306C20.7753 0.741436 20.4264 0.625 19.9613 0.625H10.5959L9.95504 2.08086L9.31592 0.625H6.34861V1.32361L6.05831 0.625H3.4984L2.33472 3.36249L0.997039 6.33284L0.972778 6.39148H4.00117L4.02209 6.33284L4.37178 5.45917H5.12721L5.47689 6.39148H8.84998V5.69203L9.14111 6.39148H10.8276L11.1187 5.69203V6.39148H19.2042V4.87699H19.3214H19.3214C19.3717 4.87699 19.4003 4.87699 19.4164 4.89113C19.4376 4.90965 19.4376 4.95242 19.4376 5.05122V6.33284H23.6255V5.98354C23.9744 6.15862 24.4981 6.33284 25.1958 6.33284H26.9417L27.2906 5.40137H28.1046L28.4534 6.33284H31.8273V5.45917L32.351 6.33284H35.0849V0.625ZM12.7476 1.44005V5.5178H11.8173V2.31373L11.7588 2.44776V2.44608L10.4052 5.5178H9.54849L8.15226 2.31373V5.5178H6.17459L5.76719 4.64412H3.78952L3.38211 5.5178H2.35982L4.08065 1.44005H5.53462L7.16342 5.34273V1.44005H8.70437L8.73201 1.49869H8.73366L9.46737 3.09779L9.99436 4.29648L10.0136 4.23617L11.1765 1.44005H12.7476ZM16.7614 1.44089V2.31373H14.4926V3.07098H16.7029V3.88687H14.4926V4.70275H16.7614V5.5756H13.5038V1.44089H16.7614ZM21.2388 2.52064C21.2254 3.14051 20.8281 3.4806 20.5428 3.59536C20.5428 3.59536 20.7368 3.63473 20.9108 3.81567C20.9111 3.8162 20.9116 3.81665 20.9121 3.81706C20.9125 3.8174 20.913 3.81771 20.9135 3.81804C20.9143 3.81858 20.9151 3.81914 20.9158 3.81985C20.9376 3.84247 20.9569 3.86592 20.9728 3.88854C21.084 4.03513 21.1744 4.25209 21.1786 4.57124C21.1794 4.5771 21.1794 4.58213 21.1794 4.58799C21.1794 4.58967 21.1796 4.59113 21.1798 4.5926C21.18 4.59407 21.1802 4.59553 21.1802 4.59721V4.60223C21.1811 4.63406 21.1819 4.66673 21.1819 4.70275V5.5178H20.3102V5.05206C20.3102 4.81835 20.3102 4.46904 20.1353 4.23617C20.0801 4.18089 20.0249 4.14486 19.9639 4.1189C19.8768 4.06278 19.7112 4.06194 19.4376 4.06194H18.3902V5.5178H17.4014V1.44089H19.6116C20.1353 1.44089 20.4842 1.44089 20.7753 1.61512C21.0606 1.78684 21.2321 2.07081 21.2388 2.52064ZM21.8805 1.44005H22.8693V5.5178H21.8805V1.44005ZM34.2124 1.49869V5.5178H32.9324L31.071 2.43017V4.99342L31.0652 4.98756V5.52031H30.0822V5.5178H29.0934L28.7445 4.64412H26.7083L26.3594 5.5756H25.2544C24.7892 5.5756 24.207 5.45917 23.8581 5.10986C23.5092 4.76055 23.3344 4.29481 23.3344 3.53756C23.3344 2.95538 23.4507 2.37237 23.8581 1.90663C24.1484 1.55649 24.6721 1.44005 25.312 1.44005H26.2432V2.31373H25.312C24.9632 2.31373 24.7892 2.37237 24.5558 2.54744C24.3818 2.72168 24.2656 3.07098 24.2656 3.47893C24.2656 3.94467 24.3232 4.23617 24.5558 4.46904C24.7307 4.64412 24.9632 4.70275 25.2544 4.70275H25.6609L26.9986 1.49869H28.4534L30.0822 5.40137V1.49869H31.5361L33.2227 4.35261V1.49869H34.2124ZM4.13802 3.77107H5.41798L4.778 2.14014L4.13802 3.77107ZM10.9441 9.24507V10.0023H13.0966V10.8174H10.9441V11.6918H13.3292L14.4343 10.468L13.3869 9.24507H10.9441ZM27.0563 3.77107L27.7549 2.14014L28.3948 3.77107H27.0563ZM17.1675 12.1591V8.83856L15.655 10.4695L17.1675 12.1591ZM19.3797 9.24507C19.7285 9.24507 19.9611 9.42012 20.0197 9.76942C20.0197 10.1187 19.7871 10.2929 19.4382 10.2929H18.1583V9.24507H19.3797ZM24.0899 10.1775C24.2062 10.1188 24.2647 9.94375 24.2647 9.76951C24.3233 9.53662 24.2062 9.42022 24.0899 9.36156C23.9736 9.30291 23.7988 9.30291 23.6248 9.30291H22.4611V10.2352H23.6248C23.7988 10.2352 23.9736 10.2352 24.0899 10.1775ZM20.0844 3.13877C20.1012 3.12034 20.117 3.0994 20.1295 3.07594C20.1823 2.99218 20.2434 2.84224 20.2107 2.637C20.2091 2.61774 20.2057 2.60015 20.2015 2.58339C20.2011 2.5812 20.2009 2.579 20.2007 2.57669C20.2005 2.57458 20.2003 2.57238 20.1999 2.56999H20.1991C20.1698 2.47031 20.0961 2.40916 20.0225 2.3723C19.9054 2.31367 19.7314 2.31367 19.5565 2.31367H18.3929V3.24599H19.5565C19.7314 3.24599 19.9062 3.24599 20.0225 3.18735C20.04 3.17898 20.0551 3.16642 20.0701 3.15301L20.0711 3.15385L20.0844 3.13877ZM37.6442 11.4591L37.6408 11.4557C37.6433 11.418 37.645 11.3811 37.645 11.3426C37.645 10.9355 37.5287 10.5276 37.3538 10.236V7.61498H37.3513V7.43991H34.5504C34.1874 7.43991 33.7474 7.79005 33.7474 7.79005V7.43991H31.0712C30.6638 7.43991 30.1409 7.55718 29.9084 7.79005V7.43991H25.1382V7.78921C24.7893 7.49855 24.1494 7.43991 23.8582 7.43991H20.7169V7.78921C20.4266 7.49855 19.7281 7.43991 19.3784 7.43991H15.8891L15.0742 8.31359L14.3179 7.43991H9.08351V13.3237H14.2025L15.0432 12.4809L15.7719 13.3237H19.0303V11.9834H19.3215C19.7281 11.9834 20.2518 11.9834 20.6592 11.8083V13.3815H23.2768V11.867H23.3922C23.4796 11.867 23.5234 11.867 23.5452 11.8889C23.5671 11.9107 23.5671 11.9545 23.5671 12.0421V13.3815H31.4786C32.0023 13.3815 32.5251 13.265 32.8162 13.0322V13.3815H35.3176C35.8413 13.3815 36.365 13.3237 36.7138 13.0899C37.2493 12.7683 37.5872 12.1987 37.6374 11.5194C37.64 11.4992 37.6424 11.4791 37.6442 11.4591ZM20.9595 9.18815C20.9904 9.30875 21.008 9.44276 21.008 9.59519C21.008 10.7604 20.1932 10.9933 19.3215 10.9933H18.1578V12.5078H16.2454L15.1327 11.2262L15.1286 11.2304L15.0742 11.1675L13.7951 12.5078H10.0723V8.43087H13.8528L14.8859 9.56336L15.1035 9.80044L15.1327 9.77033L16.3542 8.43087H19.437C20.0359 8.43087 20.706 8.5783 20.9595 9.18815ZM25.3122 9.47879C25.3122 10.1196 24.9056 10.4689 24.6145 10.5861C24.9056 10.7018 25.0796 10.8182 25.1382 10.9355C25.2544 11.1098 25.3122 11.3426 25.3122 11.6928V12.5078H24.3234V11.9834C24.3234 11.7505 24.3234 11.3426 24.1494 11.1675C24.0331 10.9933 23.7997 10.9933 23.4508 10.9933H22.4042V12.5078H21.4154V8.37223H23.6257C24.0908 8.37223 24.4982 8.37223 24.7893 8.5473C25.0796 8.72154 25.3122 9.01301 25.3122 9.47879ZM25.8944 8.37223H29.1521V9.2459H26.8833V10.0031H29.0935V10.8182H26.8833V11.6341H29.1521V12.5078H25.8944V8.37223ZM32.8162 10.3524C32.9911 10.5276 33.1074 10.819 33.1074 11.2262C33.1074 12.0998 32.5837 12.5078 31.5949 12.5078H29.7335V11.6341H31.5949C31.7689 11.6341 31.886 11.6341 32.0023 11.5176C32.0608 11.4591 32.1186 11.3426 32.1186 11.2262C32.1186 11.1098 32.0608 10.9933 32.0023 10.9355C31.9437 10.8769 31.8274 10.819 31.6534 10.819C31.5762 10.8142 31.4979 10.8101 31.419 10.806C30.5467 10.7609 29.6172 10.7128 29.6172 9.53744C29.6172 8.95526 29.966 8.31443 31.0134 8.31443H32.9326V9.30455H31.1297C30.9549 9.30455 30.8386 9.30455 30.7223 9.36239C30.606 9.42096 30.606 9.53744 30.606 9.65385C30.606 9.82891 30.7223 9.88674 30.8386 9.94457C30.9548 10.0031 31.0712 10.0031 31.1875 10.0031H31.7112C32.2349 10.0031 32.5837 10.1196 32.8162 10.3524ZM36.9289 11.0175C36.9389 11.0829 36.9464 11.1507 36.9464 11.2262C36.9464 11.5763 36.8302 11.867 36.5976 12.0998C36.365 12.3327 35.9576 12.5078 35.3762 12.5078H33.5148V11.6341H35.3762C35.5502 11.6341 35.6673 11.6341 35.7836 11.5176C35.8413 11.4591 35.8999 11.3426 35.8999 11.2262C35.8999 11.1098 35.8413 10.9933 35.7836 10.9355C35.725 10.8769 35.6088 10.819 35.4339 10.819C35.3567 10.8142 35.2784 10.8101 35.1996 10.806C34.3279 10.7609 33.3985 10.7128 33.3985 9.53744C33.3985 8.98372 33.7147 8.48364 34.4944 8.33538C34.5881 8.32197 34.6868 8.31443 34.7948 8.31443H36.7138V9.30455H34.911C34.7362 9.30455 34.6199 9.30455 34.5036 9.36239C34.4451 9.42096 34.3865 9.53744 34.3865 9.65385C34.3865 9.82891 34.4451 9.88674 34.6199 9.94457C34.7362 10.0031 34.8525 10.0031 34.9688 10.0031H35.4925C35.7468 10.0031 35.9383 10.0342 36.1149 10.0962C36.2755 10.1548 36.8093 10.3935 36.9289 11.0175Z" fill="white"/>
</svg>
