<svg width="24" height="20" viewBox="0 0 24 20" fill="none" xmlns="http://www.w3.org/2000/svg">
<path fill-rule="evenodd" clip-rule="evenodd" d="M12.0507 0.0282367C12.257 0.0282367 12.4637 0.0237065 12.6704 0.0191766C13.1262 0.00918534 13.582 -0.000804229 14.0333 0.0378212C15.2943 0.147358 16.4404 0.597827 17.4371 1.38923C18.5202 2.24909 19.2363 3.35404 19.5307 4.70545C19.9154 6.4731 19.5526 8.08466 18.423 9.50726C17.4591 10.7204 16.2103 11.4899 14.6974 11.8103C14.2633 11.902 13.8101 11.9239 13.3651 11.9321C12.5712 11.9458 11.7782 11.9405 10.9846 11.9352C10.8256 11.9341 10.6666 11.933 10.5076 11.9321C9.22601 11.9267 8.07314 11.5268 7.04623 10.7697C5.66059 9.74687 4.82264 8.37082 4.65012 6.66342C4.33794 3.59092 6.11791 0.893576 9.18767 0.180219C9.63003 0.0772036 10.0917 0.0503531 10.5499 0.0237049C10.6093 0.020247 10.6687 0.0167925 10.728 0.0131754C11.033 -0.00487639 11.3393 -0.000512941 11.6456 0.00384974C11.7806 0.00577424 11.9157 0.00769859 12.0507 0.00769859V0.0268675V0.0282367ZM5.18685 5.95006C5.1622 8.91166 7.57748 11.405 10.6116 11.4255C13.6075 11.4461 16.1022 9.01709 16.1063 5.98977C16.1104 2.97066 13.7348 0.548536 10.7116 0.504721C7.71577 0.460906 5.1978 2.85839 5.18548 5.95006H5.18685ZM0.0263062 16.7504C0.545279 16.7479 0.537975 16.4329 0.530507 16.1107C0.529779 16.0793 0.529049 16.0478 0.528805 16.0165C0.525885 15.639 0.526079 15.2615 0.526274 14.8838C0.526444 14.5532 0.526615 14.2225 0.524698 13.8915C0.523329 13.5383 0.498683 13.5164 0.159119 13.4424C0.132356 13.4369 0.109325 13.4158 0.0862526 13.3947L0.0862504 13.3947C0.0750925 13.3845 0.063925 13.3742 0.0523211 13.3658C0.0557445 13.3555 0.0588255 13.3452 0.0619065 13.3349L0.0619133 13.3349C0.0649915 13.3247 0.0680699 13.3144 0.07149 13.3041C0.170024 13.3041 0.26869 13.303 0.367406 13.3018H0.367449C0.586961 13.2991 0.80672 13.2965 1.02583 13.3069C1.11051 13.3109 1.19563 13.3139 1.28086 13.3169H1.28087C1.59667 13.3279 1.91407 13.3389 2.21704 13.4068C3.09196 13.6026 3.60542 14.2941 3.59309 15.1786C3.58214 15.9522 3.00844 16.6163 2.16912 16.7956C1.93074 16.8461 1.68306 16.8547 1.43787 16.8632L1.37498 16.8654C1.0812 16.8755 0.786526 16.8737 0.492415 16.872L0.289194 16.8709C0.236479 16.8709 0.183764 16.8615 0.131049 16.8521C0.108458 16.8481 0.0858662 16.8441 0.0632748 16.8408L0.0263062 16.7504ZM1.04226 13.5136V16.3095C1.04226 16.5327 1.17233 16.6724 1.38045 16.6929C1.83229 16.7395 2.26085 16.6642 2.59494 16.3232C3.0591 15.8495 3.17412 14.9937 2.87563 14.3461C2.56756 13.6779 1.9254 13.3808 1.04089 13.5136H1.04226ZM22.1212 12.9605C21.8775 13.0659 21.6625 13.159 21.4352 13.2576H21.4325L21.4442 13.2674C21.7069 13.4894 21.7255 13.5051 21.7214 13.7628C21.7036 14.7514 21.6776 15.74 21.6502 16.7285C21.6461 16.8627 21.679 16.8956 21.8118 16.849C21.8885 16.823 21.9911 16.8189 22.0665 16.8463C22.3471 16.9462 22.6319 16.9873 22.9181 16.9038C23.5082 16.7313 23.867 16.1302 23.8341 15.5045C23.7971 14.8062 23.0632 14.1763 22.28 14.7801C22.2544 14.8003 22.2257 14.8168 22.1869 14.839L22.1869 14.839L22.1868 14.8391C22.1677 14.85 22.1461 14.8624 22.1212 14.8774V12.9605ZM22.1267 15.6838H22.124V15.6825V15.3059C22.1253 14.9691 22.4457 14.7391 22.7757 14.839C23.1481 14.9527 23.4699 15.4333 23.4329 15.8522C23.4083 16.1261 23.359 16.3944 23.1522 16.6053C22.9619 16.7984 22.7291 16.8613 22.4868 16.7792C22.2527 16.6998 22.139 16.4944 22.1281 16.2479C22.1224 16.1189 22.1239 15.9893 22.1254 15.8598V15.8597V15.8596V15.8594V15.8593V15.8591V15.859V15.8588V15.8587V15.8585V15.8584C22.126 15.8001 22.1267 15.7419 22.1267 15.6838ZM17.5713 14.2392C17.5629 14.2296 17.5529 14.2203 17.5428 14.2108C17.5199 14.1894 17.4966 14.1677 17.4919 14.142C17.3495 13.4492 16.6704 13.3164 16.1624 13.4205C15.2888 13.6012 14.9452 14.2858 14.9903 15.1251C15.0273 15.8262 15.3368 16.3971 16.0214 16.6833C16.6772 16.9571 17.2386 16.6997 17.4933 16.0343C17.5048 16.005 17.5221 15.9785 17.5422 15.9479L17.5422 15.9479L17.5422 15.9478L17.5423 15.9478C17.5531 15.9312 17.5648 15.9134 17.5768 15.8932C17.7233 16.3465 17.5453 16.7175 17.1427 16.8284C16.4116 17.0297 15.7078 17.0146 15.093 16.5094C14.5289 16.0466 14.3701 15.414 14.4824 14.7294C14.596 14.038 15.0506 13.5957 15.6982 13.352C16.3089 13.1206 16.9004 13.2548 17.4837 13.4643C17.5343 13.4821 17.5891 13.5615 17.596 13.6176C17.6144 13.7674 17.6214 13.9188 17.6283 14.07L17.6283 14.0703L17.6283 14.0706L17.6283 14.071L17.6284 14.0713C17.6306 14.1214 17.6329 14.1715 17.6357 14.2214C17.6247 14.2249 17.6141 14.2279 17.6035 14.231C17.5929 14.2341 17.5823 14.2372 17.5713 14.2406V14.2392ZM20.8741 16.9118L20.8754 16.9115L20.8779 16.9109L20.8814 16.9101L20.8853 16.9093C21.0816 16.8642 21.2691 16.8212 21.4558 16.779C21.233 16.7014 21.1217 16.5467 21.1217 16.3149V14.6116C20.9761 14.6241 20.8373 14.6364 20.702 14.6483C20.5574 14.6611 20.417 14.6735 20.2769 14.6855L20.2645 14.754C20.2869 14.7624 20.309 14.7717 20.331 14.781C20.3736 14.7991 20.4161 14.8171 20.4603 14.8279C20.6397 14.8704 20.715 14.9662 20.7013 15.162C20.6878 15.3611 20.6906 15.5608 20.6935 15.7607C20.6947 15.8441 20.6958 15.9275 20.6958 16.0109C20.6958 16.4066 20.6589 16.4614 20.2878 16.6147C19.9496 16.7544 19.6813 16.6024 19.658 16.2382C19.645 16.0271 19.6459 15.8138 19.6467 15.601V15.6008V15.6007V15.6007V15.6006V15.6005V15.6004V15.6003V15.6002V15.6001V15.6V15.5999V15.5998C19.6471 15.5218 19.6474 15.4438 19.647 15.366V14.6143C19.5621 14.6234 19.4805 14.625 19.4007 14.6265C19.2282 14.6298 19.0635 14.6329 18.8885 14.7115C19.2425 14.7423 19.2379 14.9573 19.2332 15.1723C19.2327 15.1968 19.2322 15.2213 19.2322 15.2455V16.2601C19.2322 16.8352 19.6265 17.1008 20.1577 16.8721C20.2814 16.8182 20.3969 16.7447 20.5162 16.6687C20.5725 16.6329 20.6297 16.5965 20.689 16.5613C20.6945 16.6914 20.7 16.8133 20.7068 16.9502L20.8741 16.9118ZM5.00061 14.8115C5.13591 14.7613 5.25944 14.7153 5.37887 14.6708L5.37905 14.6708C5.50731 14.623 5.63085 14.5769 5.75915 14.5294V14.9087C5.79339 14.8877 5.82455 14.8676 5.85389 14.8486L5.85393 14.8486C5.91844 14.8068 5.97414 14.7708 6.03436 14.7444C6.06382 14.7313 6.09327 14.7178 6.12278 14.7043L6.12289 14.7043C6.25659 14.6431 6.39146 14.5814 6.53276 14.55C6.91476 14.4665 7.20915 14.691 7.22558 15.0826C7.23798 15.3519 7.23777 15.6218 7.23756 15.8916V15.8916V15.8916V15.8916C7.23745 16.0387 7.23733 16.1858 7.23927 16.3327C7.24474 16.7049 7.24611 16.7051 7.58906 16.7707L7.58978 16.7708C7.52543 16.8859 6.70528 16.9146 6.49989 16.8105C6.50168 16.8061 6.50318 16.8004 6.50467 16.7948C6.50774 16.7833 6.51079 16.7718 6.51633 16.7708L6.51843 16.7704C6.68067 16.7325 6.76162 16.7136 6.80167 16.6626C6.84154 16.6118 6.84087 16.5292 6.83953 16.3643L6.83946 16.356C6.83839 16.2236 6.8392 16.0913 6.84002 15.959C6.84129 15.7531 6.84255 15.5472 6.83672 15.3414C6.8244 14.8923 6.51906 14.7033 6.10282 14.8759C5.86869 14.9731 5.72218 15.099 5.75778 15.3962C5.7826 15.6014 5.77681 15.8106 5.77103 16.0196L5.77102 16.0196C5.76851 16.1104 5.766 16.2012 5.766 16.2916C5.766 16.5536 5.88193 16.7174 6.11378 16.7832C6.02615 16.89 5.16492 16.9037 4.99787 16.7832C5.02181 16.7783 5.04313 16.773 5.06283 16.7682C5.09836 16.7595 5.12861 16.7521 5.15944 16.7503C5.29636 16.7448 5.35524 16.6736 5.35387 16.5408C5.35348 16.416 5.35385 16.291 5.35422 16.166V16.1659V16.1658V16.1658V16.1657V16.1656V16.1656V16.1655V16.1654V16.1654V16.1653V16.1652V16.1652V16.1651V16.165V16.1649V16.1649V16.1648V16.1647V16.1647V16.1646V16.1645C5.35517 15.8417 5.35611 15.5186 5.34428 15.1963C5.34214 15.1266 5.28299 15.057 5.22719 14.9913C5.21167 14.973 5.19642 14.955 5.18272 14.9375C5.16096 14.9103 5.1284 14.8909 5.08226 14.8634L5.08223 14.8634C5.05869 14.8494 5.0316 14.8332 5.00061 14.8129V14.8115ZM8.39492 16.5313C8.01838 16.2903 7.96088 15.9083 7.99648 15.4729V15.4743C8.12787 15.4743 8.25699 15.4735 8.38453 15.4728H8.38455H8.38456H8.38458H8.3846H8.38461H8.38463H8.38465H8.38467H8.38468H8.3847H8.38472H8.38474H8.38475H8.38477H8.38479H8.3848H8.38482H8.38484H8.38486H8.38487C8.67719 15.471 8.96119 15.4694 9.2452 15.477C9.42867 15.4825 9.47112 15.414 9.45605 15.2415C9.41635 14.7869 8.90426 14.4337 8.43873 14.5542C7.97183 14.676 7.7021 14.9923 7.6131 15.451C7.51589 15.9507 7.56107 16.4368 7.99648 16.775C8.48255 17.1515 9.23698 16.8887 9.47933 16.278C9.12744 16.5491 8.79609 16.7873 8.39492 16.5313ZM8.23138 15.2889C8.16187 15.2885 8.09224 15.288 8.02249 15.288C8.07726 14.8923 8.30044 14.6774 8.63453 14.7253C8.74817 14.7417 8.87277 14.8294 8.94671 14.9225C9.00422 14.995 9.01517 15.1292 8.99463 15.2251C8.98778 15.262 8.8358 15.2826 8.74954 15.2853C8.57752 15.2912 8.4048 15.2901 8.23138 15.2889ZM18.9131 16.7806C18.8241 16.8928 17.9629 16.9052 17.8164 16.7888C17.8507 16.7772 17.89 16.7686 17.9289 16.76C18.0141 16.7413 18.0973 16.7231 18.1217 16.6751C18.1731 16.577 18.1727 16.4481 18.1723 16.3256L18.1723 16.2855L18.1724 16.263C18.1765 15.4539 18.1751 14.6448 18.1738 13.8343V13.8341V13.834V13.8338V13.8336V13.8334V13.8333V13.8331V13.8329V13.8327V13.8325V13.8324V13.8322V13.832V13.8318V13.8317V13.8315V13.8313V13.8311V13.8309V13.8299V13.8247C18.1738 13.6046 18.1738 13.3828 17.8356 13.2877L18.0724 13.1805C18.2439 13.103 18.4002 13.0322 18.5763 12.9523V13.6588C18.5763 13.9537 18.576 14.2485 18.5757 14.5432L18.5757 14.5485V14.5487V14.5489V14.549V14.5492V14.5493V14.5495V14.5496V14.5498V14.5499V14.5501V14.5502V14.5504V14.5505V14.5507V14.5508V14.551V14.5511V14.5513V14.5514C18.5751 15.1433 18.5745 15.735 18.5763 16.3274C18.5763 16.6887 18.5817 16.6902 18.9104 16.7795L18.9145 16.7806H18.9131ZM12.805 15.1673C12.8124 15.1801 12.8199 15.1929 12.827 15.2059L12.8284 15.2045C12.8386 15.2017 12.8489 15.1987 12.8592 15.1956C12.8695 15.1925 12.8797 15.1894 12.89 15.1867C12.89 15.1484 12.8907 15.1099 12.8915 15.0715C12.8934 14.9726 12.8954 14.8735 12.8845 14.7759C12.879 14.7294 12.8215 14.6609 12.7763 14.6486L12.7063 14.6292C12.548 14.5851 12.3871 14.5402 12.2273 14.539C11.8891 14.5349 11.5947 14.7622 11.5317 15.032C11.4496 15.3893 11.5605 15.6139 11.9247 15.8152C11.9747 15.8424 12.0261 15.8671 12.0774 15.8919C12.1526 15.9281 12.2277 15.9643 12.2985 16.0082C12.3889 16.0657 12.4833 16.1328 12.5463 16.2177C12.6983 16.4244 12.6011 16.6791 12.3533 16.7544C12.0534 16.8448 11.7782 16.7065 11.6317 16.3888C11.6112 16.3443 11.593 16.2981 11.5749 16.252C11.5652 16.2272 11.5555 16.2024 11.5454 16.178C11.4441 16.8174 11.4866 16.8475 12.0822 16.9406C12.1431 16.9502 12.2062 16.9462 12.2677 16.9423L12.2944 16.9406C12.7832 16.9105 13.0954 16.5312 12.9982 16.089C12.942 15.8384 12.7435 15.7275 12.5408 15.618C12.4873 15.589 12.4325 15.5614 12.3776 15.5338L12.3775 15.5338L12.3775 15.5338C12.2301 15.4597 12.0822 15.3853 11.9576 15.2825C11.8795 15.2195 11.8467 15.032 11.8781 14.9279C11.9055 14.8389 12.0479 14.7472 12.1534 14.7266C12.4587 14.6678 12.6463 14.791 12.7585 15.0785C12.7709 15.109 12.7879 15.1381 12.805 15.1673ZM8.21146 18.9932L8.50105 19.3731C8.63889 19.554 8.77238 19.7293 8.90154 19.8982C8.54828 19.9872 8.44422 19.953 8.22789 19.6299C8.18244 19.5626 8.14056 19.4928 8.09873 19.423L8.09871 19.423C8.0435 19.3309 7.98838 19.2391 7.92529 19.1534C7.89211 19.1082 7.84093 19.0754 7.78304 19.0384C7.75493 19.0204 7.72524 19.0014 7.69526 18.9795C7.59942 19.5956 7.65008 19.7805 7.98554 19.8996H7.03257C7.32811 19.8334 7.32153 19.66 7.3151 19.4905C7.31408 19.4637 7.31307 19.437 7.31326 19.4108C7.3144 19.2767 7.31435 19.1424 7.3143 19.0081V19.008C7.31423 18.8199 7.31417 18.6318 7.31736 18.4441L7.31749 18.4354C7.32025 18.2551 7.3229 18.082 7.07091 18.0388L7.08528 18.0087L7.09966 17.9786C7.2139 17.9843 7.32826 17.989 7.44268 17.9937C7.71358 18.0049 7.98477 18.0161 8.25527 18.0402C8.44285 18.0566 8.59346 18.1936 8.58936 18.3798C8.58697 18.516 8.51891 18.6542 8.45431 18.7855L8.44355 18.8074L8.42642 18.8426C8.4095 18.8782 8.36709 18.9016 8.31124 18.9325C8.28124 18.9491 8.24735 18.9679 8.21146 18.9918V18.9932ZM7.6761 18.922L7.70584 18.9237C7.88902 18.9348 8.08136 18.9463 8.15669 18.7645C8.21556 18.6221 8.22515 18.4222 8.17038 18.2812C8.09507 18.0868 7.88832 18.0648 7.6761 18.1018V18.922ZM9.96961 14.7046C9.88382 14.7456 9.80517 14.7831 9.73399 14.817H9.73262C9.76332 14.8689 9.79759 14.9167 9.83003 14.9619L9.83007 14.9619L9.83007 14.9619C9.89601 15.0538 9.9544 15.1351 9.95991 15.2195C9.97674 15.4986 9.97466 15.7782 9.97257 16.058V16.0581V16.0582V16.0583V16.0583V16.0584V16.0585V16.0586V16.0586V16.0587V16.0588V16.0589V16.0589V16.059V16.0591V16.0592V16.0592C9.97143 16.2115 9.9703 16.3638 9.97223 16.5162C9.9736 16.664 9.90925 16.7339 9.76959 16.7489C9.73289 16.7524 9.69619 16.757 9.65629 16.7621L9.65619 16.7621C9.6336 16.7649 9.60997 16.7679 9.58474 16.7708C9.69291 16.9037 10.8047 16.9037 10.9307 16.7599C10.8953 16.7585 10.8625 16.7561 10.8316 16.7539H10.8316H10.8316H10.8316C10.7716 16.7496 10.7183 16.7458 10.665 16.7503C10.446 16.7695 10.3761 16.6723 10.3844 16.46C10.3919 16.2657 10.3903 16.071 10.3887 15.8764V15.8764C10.3874 15.7171 10.3861 15.5579 10.3898 15.3989C10.3994 15.0361 10.6294 14.8964 10.9676 15.032C11.1237 15.0949 11.2757 15.058 11.3017 14.8923C11.3168 14.7951 11.2387 14.6226 11.1566 14.5842C11.0607 14.539 10.8923 14.5678 10.7938 14.628C10.692 14.6898 10.6061 14.778 10.5173 14.8693C10.4782 14.9094 10.4385 14.9502 10.3967 14.9895C10.389 14.9034 10.3813 14.819 10.3734 14.732L10.3732 14.7299L10.373 14.7284L10.3542 14.5212C10.2137 14.588 10.0853 14.6493 9.96983 14.7045L9.96961 14.7046ZM18.1135 18.0387L18.1163 18.0381C18.4312 18.0952 18.4352 18.2957 18.4257 18.5193C18.4158 18.7517 18.42 18.9849 18.4242 19.2176V19.2177L18.4242 19.2182L18.4258 19.3115L18.4271 19.3915V19.3916C18.4298 19.6079 18.4325 19.8214 18.1669 19.9022H18.8337C18.5845 19.8406 18.5585 19.6667 18.5681 19.4613C18.5722 19.3866 18.5689 19.3115 18.5657 19.2361C18.5635 19.1857 18.5613 19.1353 18.5613 19.0848V18.4454C18.5708 18.444 18.5801 18.4423 18.5893 18.4406L18.5893 18.4406L18.5893 18.4406L18.5893 18.4406C18.5986 18.4389 18.6078 18.4371 18.6174 18.4358C18.8508 18.6946 19.0843 18.9537 19.3177 19.2128C19.5512 19.4719 19.7846 19.731 20.0181 19.9898C20.029 19.9844 20.04 19.9785 20.051 19.9727C20.0619 19.9669 20.0729 19.9611 20.0838 19.9556C20.0838 19.8077 20.0837 19.6598 20.0835 19.512V19.5106C20.0832 19.2153 20.0829 18.92 20.0838 18.6247C20.084 18.601 20.0836 18.577 20.0832 18.5529V18.5528V18.5527V18.5526V18.5525V18.5523V18.5522C20.0801 18.3327 20.0768 18.1087 20.4343 18.0113H19.6607C19.6928 18.0371 19.7314 18.0612 19.7688 18.0847C19.8446 18.1322 19.9158 18.1768 19.9195 18.2263C19.9387 18.4975 19.9363 18.7703 19.9337 19.0573C19.9328 19.1585 19.9318 19.2615 19.9318 19.3668C19.5772 18.9684 19.2541 18.6042 18.9309 18.24C18.6946 17.9735 18.5618 17.9362 18.1163 18.0381L18.1122 18.0373L18.1135 18.0387ZM10.8684 19.0654C10.8667 19.171 10.8649 19.2801 10.8649 19.3942L10.8636 19.3956L10.6004 19.0974L10.5999 19.0968L10.5984 19.0951C10.3199 18.7794 10.0592 18.484 9.79695 18.1893C9.61074 17.9799 9.33553 17.9265 9.02883 18.0524C9.32731 18.1003 9.36428 18.2879 9.35059 18.5248C9.34055 18.6864 9.3439 18.8491 9.34724 19.0119V19.0119C9.34892 19.0933 9.35059 19.1747 9.35059 19.256C9.35044 19.2839 9.35098 19.3122 9.35152 19.3405C9.3558 19.5634 9.36015 19.7902 9.02609 19.8995H9.82981C9.49299 19.779 9.48477 19.7694 9.48203 19.4696C9.48113 19.2372 9.48142 19.0048 9.48172 18.7634C9.48188 18.6392 9.48203 18.5126 9.48203 18.3824L9.84595 18.7864C10.2165 19.1977 10.5799 19.6012 10.9457 20.0063C10.9678 19.9824 10.9821 19.9679 10.9912 19.9587L10.9912 19.9586L10.9913 19.9586C11.0029 19.9467 11.006 19.9436 11.006 19.9406C11.006 19.7994 11.0055 19.6582 11.0051 19.517L11.0051 19.5161C11.0041 19.2331 11.0032 18.9502 11.006 18.6672C11.0064 18.6294 11.005 18.5908 11.0036 18.5522C10.9959 18.3319 10.988 18.1096 11.3072 18.0141H10.6349C10.657 18.0459 10.6853 18.0782 10.7143 18.1113L10.7143 18.1113L10.7144 18.1113C10.7789 18.1849 10.8464 18.2619 10.854 18.3441C10.8763 18.5756 10.8725 18.8099 10.8684 19.0654ZM18.0642 18.9218C18.0574 19.5325 17.6096 19.9775 17.0045 19.9748C16.413 19.972 15.9776 19.5448 15.9817 18.9711C15.9858 18.3933 16.439 17.9497 17.0223 17.9511C17.6384 17.9538 18.0697 18.355 18.0642 18.9218ZM17.7143 19.0198L17.7144 19.0197C17.7219 19.0153 17.7295 19.0108 17.737 19.0067C17.7084 18.9333 17.6836 18.8574 17.6589 18.7814C17.6043 18.6138 17.5497 18.4461 17.4536 18.3057C17.192 17.9237 16.6115 18.0099 16.4499 18.4426C16.3034 18.8383 16.3377 19.2313 16.5691 19.59C16.6923 19.7803 16.8785 19.8707 17.1126 19.8447C17.3646 19.8159 17.5398 19.6927 17.6083 19.4449C17.6334 19.3536 17.6503 19.2592 17.6672 19.1651L17.6672 19.1648L17.6673 19.1646C17.6752 19.1205 17.6831 19.0764 17.6918 19.0327L17.7 19.0282L17.7143 19.0198ZM1.86102 18.2771C1.62825 17.9554 1.34346 17.98 1.0039 18.0252V18.0266C1.31813 18.0824 1.31343 18.2971 1.3086 18.5176L1.30786 18.5537C1.30533 18.713 1.30695 18.8728 1.30857 19.0325L1.30857 19.0325C1.30959 19.1323 1.3106 19.2319 1.3106 19.3314C1.31048 19.3506 1.31057 19.3698 1.31066 19.3891C1.3116 19.6013 1.31254 19.8147 1.04771 19.9051H1.72821C1.44752 19.8558 1.43793 19.6504 1.43793 19.4396V18.3675C1.60887 18.5515 1.77242 18.7353 1.93368 18.9166C2.26326 19.287 2.58326 19.6467 2.93722 19.9749C2.96871 19.5026 2.96871 19.0548 2.96871 18.6085C2.96886 18.5819 2.96846 18.555 2.96805 18.5281C2.96487 18.317 2.96168 18.1047 3.22886 18.0088H2.5867C2.61029 18.0373 2.64002 18.0661 2.67032 18.0955C2.74024 18.1633 2.81319 18.234 2.82083 18.3114C2.84313 18.5518 2.83935 18.795 2.83523 19.0589L2.83523 19.059C2.83354 19.1677 2.83179 19.28 2.83179 19.3971C2.72352 19.2741 2.61616 19.1571 2.51135 19.0428C2.27549 18.7857 2.0525 18.5425 1.86102 18.2771ZM22.2828 19.9063H21.5229L21.5146 19.8735C21.5776 19.8447 21.6406 19.816 21.7008 19.7872C21.6315 19.4184 21.4375 19.2359 21.1189 19.2395C20.8629 19.2423 20.8588 19.2478 20.7712 19.7763C20.8328 19.8064 20.8999 19.8393 21.0149 19.8968H20.4384C20.466 19.8481 20.4963 19.7989 20.5273 19.7488C20.5965 19.6367 20.6686 19.5201 20.7178 19.3943C20.8602 19.0287 20.9875 18.6563 21.0998 18.2797C21.1545 18.0976 21.2353 17.9675 21.4585 17.9251L21.4997 18.0347C21.5461 18.1582 21.5939 18.2853 21.6392 18.4139C21.6872 18.5495 21.734 18.6855 21.7809 18.8215C21.8746 19.0935 21.9683 19.3655 22.0705 19.6339C22.0952 19.6997 22.1467 19.7551 22.2015 19.814C22.2287 19.8433 22.2568 19.8736 22.2828 19.9063ZM21.1853 18.4292L21.2319 18.2873C21.3302 18.5848 21.408 18.8225 21.4886 19.0698H20.9738C21.0442 18.8587 21.1089 18.6617 21.1843 18.432L21.1852 18.4292L21.1853 18.4292ZM12.5121 18.3027L12.5112 18.3C12.4683 18.1786 12.4253 18.0569 12.382 17.9346C12.1616 17.9607 12.0698 18.0757 12.0151 18.2633C11.9042 18.6384 11.7755 19.0108 11.6358 19.3764C11.5864 19.5076 11.5172 19.6308 11.4506 19.7493C11.4213 19.8016 11.3925 19.8529 11.3661 19.9036H11.8905C11.891 19.8993 11.8918 19.895 11.8925 19.8908L11.8932 19.8872L11.8932 19.8871C11.8942 19.8817 11.8953 19.8762 11.896 19.8707C11.8518 19.8548 11.8077 19.8384 11.7493 19.8166L11.7486 19.8163L11.6372 19.7749C11.7101 19.7106 11.724 19.6155 11.7374 19.5241C11.756 19.3975 11.7735 19.278 11.9453 19.2573C11.98 19.253 12.0183 19.2443 12.0583 19.2352C12.2206 19.1985 12.4106 19.1554 12.4984 19.3696C12.5107 19.3998 12.528 19.432 12.5459 19.4652C12.6252 19.613 12.7162 19.7825 12.4368 19.8953H13.1789C13.1561 19.8629 13.1315 19.8322 13.1073 19.8019C13.0558 19.7376 13.006 19.6754 12.979 19.6037C12.8195 19.1735 12.6668 18.7407 12.5122 18.3029L12.5122 18.3028L12.5122 18.3028L12.5122 18.3028L12.5122 18.3028L12.5122 18.3028L12.5121 18.3028L12.5121 18.3027L12.5121 18.3027L12.5121 18.3027L12.5121 18.3027ZM12.3148 18.822L12.3971 19.0766H11.8877C11.9459 18.897 12.0034 18.7189 12.0681 18.5181L12.1424 18.2879L12.3148 18.822ZM5.3758 18.0033H5.37983C5.61131 18.1224 5.6113 18.1261 5.60994 18.3908C5.60811 18.6117 5.60872 18.832 5.60933 19.0521V19.0522C5.60963 19.1622 5.60994 19.2721 5.60994 19.3821C5.60994 19.4151 5.6117 19.4489 5.61346 19.4827C5.62279 19.6616 5.63213 19.8405 5.37991 19.9119H6.85044C6.86723 19.814 6.88401 19.7174 6.90426 19.6008L6.93533 19.4218C6.91113 19.4475 6.89429 19.4649 6.88233 19.4773L6.88231 19.4773L6.88229 19.4773L6.88224 19.4774C6.86247 19.4978 6.85608 19.5045 6.85181 19.5121C6.71489 19.7832 6.31097 19.9202 6.0563 19.7723C6.01112 19.7463 5.97004 19.6737 5.9673 19.6217C5.9603 19.4687 5.96133 19.3158 5.9624 19.1575C5.96279 19.099 5.96319 19.0398 5.96319 18.9795C6.02044 18.9837 6.07921 18.9797 6.13673 18.9757C6.32273 18.9629 6.49565 18.951 6.56154 19.2219V18.6126C6.46954 18.8743 6.29169 18.8575 6.10227 18.8396C6.05488 18.8351 6.00676 18.8305 5.95909 18.8303V18.1238C6.01849 18.1238 6.07524 18.1203 6.12934 18.117L6.1294 18.1169H6.12943C6.2449 18.1099 6.34832 18.1035 6.43968 18.1333C6.52174 18.1601 6.58917 18.2287 6.65587 18.2965C6.68488 18.3261 6.71376 18.3554 6.74364 18.3812V18.0033H5.37983L5.37717 18.0019L5.3758 18.0033ZM4.1766 14.6414L4.17574 14.6417C4.07073 14.6765 3.97183 14.7092 3.87517 14.7417L3.87654 14.743C3.90628 14.7971 3.94017 14.8475 3.97256 14.8956C4.03857 14.9937 4.09831 15.0825 4.10382 15.1743C4.12066 15.4685 4.11857 15.7632 4.11649 16.0578C4.11535 16.2184 4.11421 16.379 4.11615 16.5394C4.11752 16.6777 4.06275 16.7421 3.9272 16.7503C3.89274 16.7522 3.85963 16.7595 3.82131 16.7679C3.8048 16.7715 3.78733 16.7754 3.76837 16.7791C3.89707 16.905 4.77611 16.8982 4.8651 16.7886C4.64694 16.7193 4.53786 16.56 4.53786 16.3108V14.9443V14.5212C4.40739 14.565 4.28854 14.6043 4.17664 14.6414L4.1766 14.6414ZM14.162 18.1346C14.162 18.2782 14.1622 18.4207 14.1625 18.5624V18.5627V18.5628V18.5629V18.5629V18.563V18.5631V18.5631C14.163 18.9142 14.1636 19.2604 14.1607 19.6065C14.1593 19.7941 14.2757 19.8448 14.429 19.8954H13.5281C13.8074 19.8708 13.8088 19.6736 13.806 19.4614C13.8022 19.1568 13.803 18.8523 13.8039 18.5367V18.5366V18.5366V18.5365V18.5364V18.5363V18.5362V18.5362C13.8043 18.3979 13.8047 18.2575 13.8047 18.1141C13.7148 18.1364 13.6195 18.1283 13.5258 18.1204H13.5258C13.3268 18.1035 13.1351 18.0872 13.0187 18.3646L13.0188 18.3643C13.0297 18.2234 13.0406 18.0825 13.0502 17.9566H14.9356C14.9237 18.0578 14.9097 18.1818 14.8928 18.3322L14.8927 18.3329L14.8927 18.3331L14.8927 18.3332L14.8926 18.3343L14.885 18.4016C14.7709 18.2108 14.5303 18.1214 14.1634 18.1332L14.162 18.1346ZM5.24271 18.0965L5.25397 17.9567L5.2526 17.9553H3.38226C3.37252 18.0539 3.3617 18.173 3.35077 18.2934L3.34666 18.3387C3.47856 18.084 3.66622 18.1021 3.85471 18.1202C3.94798 18.1291 4.04145 18.1381 4.12848 18.1141C4.12848 18.272 4.12879 18.4257 4.1291 18.5768V18.5769V18.5769V18.577V18.577V18.5771V18.5771C4.1297 18.8715 4.13029 19.1559 4.12848 19.4409C4.12848 19.463 4.12932 19.4859 4.13018 19.5091C4.13324 19.5922 4.13643 19.6786 4.10109 19.7407C4.07115 19.7922 4.0073 19.8232 3.9406 19.8556C3.9097 19.8706 3.8782 19.8859 3.84916 19.9037H4.74873C4.48223 19.8562 4.48523 19.6663 4.48825 19.4749L4.48858 19.4532C4.48933 19.3845 4.48763 19.3163 4.48593 19.248L4.48593 19.2479C4.48452 19.191 4.4831 19.134 4.4831 19.0767V18.1196C4.56606 18.1333 4.65057 18.1279 4.73253 18.1227C4.92924 18.1102 5.11133 18.0986 5.22247 18.3537C5.22876 18.2685 5.23563 18.1838 5.2427 18.0966L5.24271 18.0965ZM23.9738 19.4806L23.9735 19.4818L23.919 19.4395C23.819 19.8106 23.5466 19.8407 23.2467 19.8243C23.0824 19.8161 23.0098 19.749 23.0139 19.5751C23.018 19.4068 23.016 19.2382 23.0139 19.0694V19.0694V19.0694V19.0693V19.0693V19.0692C23.0119 18.9002 23.0098 18.731 23.0139 18.5619C23.0147 18.5208 23.0115 18.4775 23.0082 18.434C22.9947 18.2543 22.9808 18.0699 23.2508 18.0114H22.4142C22.6702 18.0571 22.6671 18.2348 22.6639 18.4198L22.6634 18.4468C22.6579 18.7837 22.6552 19.1219 22.6634 19.4601L22.6634 19.4606C22.6675 19.663 22.6714 19.8531 22.3951 19.8955C22.4498 19.916 22.4868 19.9242 22.5238 19.9242H23.8724C23.8932 19.8351 23.9122 19.7511 23.9307 19.6694L23.9308 19.6692C23.9451 19.6058 23.9592 19.5438 23.9735 19.4818L23.9738 19.482V19.4806ZM0.0906394 19.9049H0.872457C0.665707 19.8433 0.661599 19.69 0.665707 19.5161C0.673922 19.1546 0.672553 18.7918 0.665707 18.4303L0.665482 18.4205C0.66138 18.242 0.657502 18.0732 0.882042 18.0154H0.0796857C0.280959 18.0606 0.306974 18.1907 0.304236 18.3591C0.29739 18.7356 0.298759 19.1135 0.302867 19.4914L0.303829 19.5335C0.308063 19.6936 0.312219 19.8508 0.0906394 19.9049ZM15.8653 18.0073C15.6331 18.065 15.6387 18.2263 15.6445 18.39C15.6452 18.4126 15.646 18.4353 15.6462 18.4577C15.648 18.6877 15.6474 18.9183 15.6468 19.1486V19.1487V19.1489V19.149V19.1491V19.1493V19.1494C15.6465 19.2645 15.6462 19.3794 15.6462 19.4942C15.6462 19.6777 15.7261 19.816 15.8858 19.9091H15.0752C15.3231 19.8378 15.3128 19.657 15.3025 19.4774C15.3003 19.4397 15.2982 19.4021 15.2984 19.3655C15.2996 19.2392 15.2991 19.1129 15.2986 18.9867C15.2978 18.8062 15.2971 18.6258 15.3012 18.4454L15.3014 18.436C15.3055 18.245 15.3094 18.0638 15.0588 18.0059H15.8639L15.8653 18.0073ZM4.2001 13.6839L4.20011 13.6839C4.22447 13.7144 4.24884 13.7449 4.26809 13.7751C4.30643 13.7764 4.34477 13.7764 4.38311 13.7764C4.40333 13.7476 4.42853 13.7184 4.45372 13.6893L4.45373 13.6893C4.5121 13.6218 4.57041 13.5544 4.56658 13.4903C4.56247 13.4081 4.41871 13.2753 4.33381 13.2726C4.25029 13.2698 4.10105 13.3999 4.0942 13.4807C4.08945 13.5453 4.14476 13.6146 4.2001 13.6839ZM11.8905 9.1773V2.77352C12.9242 3.07611 13.9306 4.20571 14.0785 5.53795C14.2729 7.29738 13.2186 8.68987 11.8905 9.1773ZM9.39715 9.16088V2.76531C8.20868 3.15005 7.13795 4.46997 7.18588 6.07879C7.22969 7.58766 8.30589 8.835 9.39715 9.16088Z" fill="white"/>
</svg>
