<svg width="36" height="15" viewBox="0 0 36 15" fill="none" xmlns="http://www.w3.org/2000/svg">
<g id="Clip path group">
<mask id="mask0_632_38960" style="mask-type:luminance" maskUnits="userSpaceOnUse" x="0" y="0" width="36" height="15">
<g id="clip0_4966_34399">
<path id="Vector" d="M35.5263 0.500977H0.526276V14.3168H35.5263V0.500977Z" fill="white"/>
</g>
</mask>
<g mask="url(#mask0_632_38960)">
<g id="Group">
<path id="Vector_2" fill-rule="evenodd" clip-rule="evenodd" d="M17.009 3.19494V6.52454H19.1347C19.6407 6.52454 20.0585 6.35956 20.3907 6.03123C20.5537 5.88066 20.6831 5.69887 20.7709 5.49723C20.8586 5.29559 20.903 5.07842 20.9008 4.85933C20.9008 4.4156 20.7303 4.02876 20.3907 3.69962C20.0594 3.36235 19.6407 3.19413 19.1339 3.19413L17.009 3.19494ZM17.009 7.69644V11.5592H15.7398V2.02222H19.1064C19.962 2.02222 20.6886 2.29853 21.287 2.84791C21.8946 3.39811 22.1976 4.06939 22.1976 4.85933C22.1976 5.66715 21.8946 6.34249 21.287 6.88294C20.6977 7.42582 19.9712 7.69563 19.1064 7.69563L17.009 7.69644ZM23.4802 9.56076C23.4802 9.88097 23.6216 10.1475 23.9021 10.3605C24.1825 10.5734 24.5114 10.6798 24.8883 10.6798C25.4218 10.6798 25.8979 10.4889 26.3165 10.1077C26.7352 9.72574 26.9441 9.27713 26.9441 8.7627C26.5479 8.46037 25.9961 8.31003 25.2878 8.31003C24.7718 8.31003 24.3432 8.43031 23.9978 8.67005C23.6532 8.90979 23.4802 9.20643 23.4802 9.56076ZM25.123 4.81951C26.0619 4.81951 26.8027 5.06169 27.3453 5.54524C27.8879 6.0296 28.1593 6.69358 28.1593 7.53635V11.5592H26.945V10.653H26.89C26.3657 11.399 25.6665 11.7721 24.7926 11.7721C24.0469 11.7721 23.4235 11.5592 22.9225 11.1325C22.4215 10.7067 22.1701 10.1735 22.1701 9.53475C22.1701 8.85941 22.4348 8.32303 22.9633 7.92319C23.4926 7.52334 24.1984 7.32342 25.0815 7.32342C25.8355 7.32342 26.4573 7.4567 26.9441 7.72326V7.44289C26.9441 7.01703 26.7693 6.65457 26.4198 6.35794C26.082 6.06449 25.6442 5.90505 25.1921 5.91095C24.483 5.91095 23.9229 6.20028 23.5084 6.7781L22.3906 6.09706C23.0065 5.24455 23.9179 4.81951 25.123 4.81951ZM35.1281 5.03244L30.8917 14.4353H29.58L31.153 11.1455L28.3657 5.03244H29.7456L31.7606 9.72167H31.788L33.748 5.03244H35.1281Z" fill="white"/>
<path id="Vector_3" fill-rule="evenodd" clip-rule="evenodd" d="M11.8791 6.86388C11.8791 6.47866 11.8458 6.10645 11.7817 5.75049H6.42673V7.86024H9.49288C9.42951 8.19849 9.29632 8.5206 9.10145 8.80701C8.90658 9.09342 8.65407 9.33813 8.35931 9.52626V10.8965H10.1895C11.2615 9.94237 11.8791 8.53153 11.8791 6.86388Z" fill="white"/>
<path id="Vector_4" fill-rule="evenodd" clip-rule="evenodd" d="M6.42574 12.2192C7.95881 12.2192 9.24887 11.7332 10.1894 10.8961L8.35831 9.52514C7.84979 9.85671 7.1931 10.0501 6.42657 10.0501C4.94509 10.0501 3.68833 9.08628 3.2389 7.7876H1.35376V9.20006C1.83193 10.1112 2.55884 10.8754 3.45411 11.4082C4.34937 11.9411 5.37729 12.2217 6.42574 12.2192Z" fill="white"/>
<path id="Vector_5" fill-rule="evenodd" clip-rule="evenodd" d="M3.23951 7.78713C3.00297 7.10729 3.00297 6.37021 3.23951 5.69038V4.2771H1.35438C0.955885 5.03899 0.748496 5.88244 0.7493 6.73794C0.7493 7.62296 0.967362 8.45841 1.35438 9.19877L3.23951 7.78713Z" fill="white"/>
<path id="Vector_6" fill-rule="evenodd" clip-rule="evenodd" d="M6.42657 3.42838C7.26385 3.42838 8.01374 3.70631 8.6055 4.25L10.226 2.6872C9.24137 1.80299 7.95798 1.25929 6.42657 1.25929C5.37812 1.25679 4.34937 1.53747 3.4541 2.0703C2.55884 2.60313 1.83193 3.36735 1.35376 4.27845L3.2389 5.69092C3.68833 4.39304 4.94509 3.42838 6.42657 3.42838Z" fill="white"/>
</g>
</g>
</g>
</svg>
