<svg width="26" height="20" viewBox="0 0 26 20" fill="none" xmlns="http://www.w3.org/2000/svg">
    <path d="M12.3153 14.0885L12.5039 14.2402C11.2254 15.0897 9.72223 15.5414 8.18539 15.5378C3.874 15.5378 0.380859 12.0632 0.380859 7.76891C0.380859 3.47854 3.874 3.65849e-05 8.18066 3.65849e-05C9.78007 3.65849e-05 11.2674 0.474736 12.5007 1.29288C12.44 1.34315 12.382 1.39667 12.3271 1.45321C10.4831 3.04078 9.42263 5.3459 9.42263 7.76891C9.42263 10.1919 10.4792 12.497 12.3161 14.0885H12.3153ZM17.8308 3.65849e-05C16.294 -0.00467238 14.7904 0.445298 13.5107 1.29288C13.5731 1.34633 13.6346 1.39977 13.6843 1.45321C14.5952 2.23661 15.326 3.20616 15.8272 4.29595C16.3284 5.38574 16.5882 6.57023 16.5888 7.76891C16.5888 10.1888 15.5323 12.4931 13.6954 14.0885C13.6328 14.1395 13.57 14.1901 13.5068 14.2402C14.785 15.0903 16.2884 15.542 17.8253 15.5378C22.1367 15.5378 25.6298 12.0632 25.6298 7.76891C25.6298 3.47854 22.1375 3.65849e-05 17.8308 3.65849e-05ZM13.0057 1.6662C12.0766 2.39158 11.3254 3.31814 10.8092 4.37564C10.2929 5.43314 10.0252 6.59382 10.0263 7.7697C10.0247 8.94622 10.2922 10.1076 10.8085 11.1658C11.3247 12.2241 12.0761 13.1513 13.0057 13.8771C13.1091 13.7993 13.2038 13.7176 13.3016 13.6319C14.1451 12.9038 14.8213 12.0034 15.2844 10.9919C15.7474 9.98036 15.9864 8.88141 15.9852 7.7697C15.9861 6.59384 15.7183 5.4332 15.2021 4.37571C14.6859 3.31823 13.9348 2.39166 13.0057 1.6662Z" fill="#fff"/>
    <path d="M19.6474 17.4036C19.7381 17.4036 19.8686 17.421 19.9683 17.4601L19.8295 17.8848C19.7342 17.8457 19.6389 17.8328 19.5477 17.8328C19.253 17.8328 19.1056 18.0232 19.1056 18.3656V19.5274H18.6547V17.4557H19.1012V17.7072C19.2183 17.5251 19.3874 17.4036 19.6474 17.4036ZM17.9815 17.8675H17.2447V18.8036C17.2447 19.0115 17.3182 19.1503 17.5439 19.1503C17.661 19.1503 17.8083 19.1112 17.9423 19.0333L18.0722 19.4188C17.9294 19.5184 17.7041 19.5796 17.5091 19.5796C16.9758 19.5796 16.7898 19.2933 16.7898 18.8121V17.8675H16.3692V17.4557H16.7898V16.8271H17.2447V17.4557H17.9815V17.8675ZM12.2123 18.3095C12.2604 18.0104 12.4421 17.8065 12.763 17.8065C13.0532 17.8065 13.2397 17.9885 13.2873 18.3095H12.2123ZM13.7557 18.4916C13.7512 17.8456 13.3523 17.4036 12.7714 17.4036C12.1647 17.4036 11.74 17.8457 11.74 18.4915C11.74 19.1499 12.1821 19.579 12.8022 19.579C13.1142 19.579 13.4 19.5011 13.6515 19.2888L13.4302 18.955C13.2571 19.0938 13.0358 19.1718 12.828 19.1718C12.5377 19.1718 12.2733 19.0373 12.2083 18.6648H13.7467C13.7512 18.6082 13.7556 18.5521 13.7556 18.4916H13.7557ZM15.7362 17.9846C15.6106 17.9061 15.3551 17.8064 15.0906 17.8064C14.8436 17.8064 14.6962 17.8978 14.6962 18.0496C14.6962 18.1879 14.8521 18.2271 15.047 18.2529L15.2594 18.2832C15.7103 18.3487 15.9831 18.5392 15.9831 18.9034C15.9831 19.2977 15.6364 19.5795 15.0386 19.5795C14.7003 19.5795 14.3882 19.4927 14.141 19.3106L14.3535 18.9594C14.5053 19.0765 14.731 19.1762 15.043 19.1762C15.3506 19.1762 15.5153 19.0854 15.5153 18.9247C15.5153 18.8081 15.3983 18.7426 15.1512 18.7084L14.9389 18.6781C14.475 18.6126 14.2235 18.4047 14.2235 18.0669C14.2235 17.6551 14.5618 17.4036 15.0862 17.4036C15.4156 17.4036 15.7148 17.4776 15.9311 17.6204L15.7361 17.9846H15.7362ZM21.2949 17.8317C21.2022 17.8317 21.1164 17.8482 21.0365 17.8804C20.9592 17.9117 20.889 17.9583 20.83 18.0173C20.7708 18.0778 20.7243 18.1495 20.6931 18.2282C20.6599 18.31 20.6435 18.4003 20.6435 18.4985C20.6435 18.5972 20.6599 18.687 20.6931 18.7689C20.7264 18.8507 20.7721 18.9212 20.83 18.9797C20.889 19.0388 20.9592 19.0853 21.0365 19.1166C21.1164 19.1494 21.2022 19.1652 21.2949 19.1652C21.3876 19.1652 21.474 19.1495 21.5533 19.1166C21.631 19.0855 21.7015 19.0389 21.7607 18.9797C21.8198 18.9212 21.8654 18.8507 21.8992 18.7689C21.9324 18.687 21.9488 18.5972 21.9488 18.4985C21.9488 18.4003 21.9324 18.31 21.8992 18.2282C21.8654 18.1463 21.8198 18.0759 21.7607 18.0173C21.7015 17.9581 21.631 17.9116 21.5534 17.8804C21.4712 17.8476 21.3835 17.831 21.295 17.8318L21.2949 17.8317ZM21.2949 17.4036C21.4556 17.4036 21.6045 17.4314 21.7414 17.4875C21.8738 17.5401 21.9945 17.6183 22.0966 17.7177C22.1972 17.8162 22.277 17.9339 22.3313 18.0639C22.3878 18.1974 22.4161 18.3423 22.4161 18.4985C22.4161 18.6547 22.3878 18.7996 22.3313 18.9331C22.277 19.0632 22.1971 19.1811 22.0965 19.2798C21.9969 19.3776 21.8783 19.454 21.7415 19.51C21.6044 19.5657 21.4556 19.5934 21.2949 19.5934C21.1341 19.5934 20.9853 19.5657 20.8484 19.51C20.7115 19.454 20.5939 19.3776 20.4947 19.2798C20.3947 19.1808 20.3153 19.0629 20.261 18.9331C20.2044 18.7996 20.1761 18.6547 20.1761 18.4985C20.1761 18.3423 20.2044 18.1974 20.261 18.064C20.3153 17.9342 20.3947 17.8166 20.4947 17.7177C20.5962 17.6183 20.7164 17.54 20.8484 17.4875C20.9853 17.4314 21.1341 17.4036 21.2949 17.4036ZM9.57908 18.4915C9.57908 18.1275 9.81776 17.8283 10.2076 17.8283C10.5803 17.8283 10.8318 18.1145 10.8318 18.4916C10.8318 18.8686 10.5803 19.1544 10.2076 19.1544C9.81776 19.1544 9.57908 18.8557 9.57908 18.4916V18.4915ZM11.2565 18.4915V17.4557H10.8059V17.7072C10.6626 17.5207 10.4463 17.4036 10.1516 17.4036C9.57069 17.4036 9.11572 17.8585 9.11572 18.4915C9.11572 19.1241 9.57069 19.5795 10.1516 19.5795C10.4463 19.5795 10.6625 19.4624 10.8059 19.2759V19.5274H11.2565V18.4916V18.4915ZM8.71677 19.5275V18.2273C8.71677 17.7376 8.4047 17.4082 7.90219 17.4037C7.63777 17.3993 7.36437 17.4816 7.17392 17.7723C7.031 17.5426 6.80534 17.4037 6.48884 17.4037C6.26801 17.4037 6.05123 17.4687 5.88208 17.7113V17.4558H5.43164V19.5275H5.88652V18.3791C5.88652 18.0194 6.08594 17.8284 6.39347 17.8284C6.69271 17.8284 6.8445 18.0233 6.8445 18.3746V19.5275H7.29947V18.379C7.29947 18.0193 7.50777 17.8283 7.80642 17.8283C8.11454 17.8283 8.26189 18.0232 8.26189 18.3745V19.5275H8.71677Z" fill="#fff"/>
</svg>
