<svg width="45" height="11" viewBox="0 0 45 11" fill="none" xmlns="http://www.w3.org/2000/svg">
<path id="Vector" d="M43.266 7.80679C43.1006 7.8073 42.9371 7.84067 42.7846 7.905C42.6321 7.96931 42.4937 8.06332 42.3773 8.18157C42.261 8.29991 42.169 8.44016 42.1066 8.59433C42.0442 8.74851 42.0125 8.91354 42.0135 9.08008C42.0125 9.24628 42.044 9.41099 42.1062 9.56491C42.1683 9.71884 42.2601 9.85891 42.3759 9.97718C42.4919 10.0954 42.6298 10.1895 42.7819 10.254C42.9339 10.3186 43.0971 10.3524 43.262 10.3534C43.5973 10.3534 43.9189 10.2193 44.156 9.98041C44.3931 9.74165 44.5262 9.41779 44.5262 9.08008C44.5262 8.74237 44.3931 8.41851 44.156 8.17974C43.9189 7.94093 43.5973 7.80679 43.262 7.80679H43.266ZM39.1464 6.82305C39.1637 6.45912 39.0725 6.0983 38.8843 5.78708C38.6962 5.47586 38.42 5.22847 38.0911 5.07678C37.7621 4.92509 37.3957 4.87605 37.0388 4.93596C36.682 4.99588 36.3512 5.16202 36.0889 5.41298C35.8267 5.66393 35.645 5.98822 35.5673 6.34407C35.4897 6.69993 35.5196 7.07104 35.6532 7.40963C35.7868 7.74823 36.0179 8.03878 36.3169 8.24385C36.6159 8.44895 36.9691 8.55925 37.3308 8.56041C37.563 8.56572 37.794 8.52483 38.0106 8.44016C38.2271 8.35548 38.425 8.22867 38.5929 8.06695C38.7607 7.90526 38.8953 7.71183 38.989 7.4977C39.0826 7.28359 39.1334 7.05299 39.1385 6.81908L39.1464 6.82305ZM39.1464 3.4355H41.1432V10.2067H39.1464V9.79008C38.5674 10.1925 37.8806 10.4083 37.1772 10.4089C36.2371 10.4089 35.3355 10.0328 34.6708 9.3633C34.006 8.69377 33.6326 7.78574 33.6326 6.83892C33.6326 5.89209 34.006 4.98405 34.6708 4.31453C35.3355 3.64503 36.2371 3.26891 37.1772 3.26891C37.8812 3.27 38.5681 3.48725 39.1464 3.89168V3.4355ZM23.184 4.31611V3.44344H21.14V10.2067H23.1879V7.03328C23.1879 5.96625 24.3261 5.39108 25.1138 5.39108H25.1217V3.44344C24.7546 3.43465 24.3902 3.50843 24.0549 3.65939C23.7198 3.81035 23.4222 4.0347 23.184 4.31611ZM18.0956 6.81908C18.1113 6.45602 18.0187 6.09652 17.8299 5.78686C17.641 5.4772 17.3645 5.23153 17.0359 5.08149C16.7073 4.93144 16.3416 4.88387 15.9859 4.94491C15.6302 5.00594 15.3008 5.17279 15.04 5.42397C14.7793 5.67516 14.5991 5.99918 14.5228 6.35436C14.4463 6.70952 14.4773 7.07959 14.6114 7.41693C14.7457 7.75426 14.977 8.04343 15.2758 8.24725C15.5745 8.45102 15.927 8.56008 16.2878 8.56041C16.52 8.56572 16.7511 8.52483 16.9676 8.44016C17.1841 8.35548 17.382 8.22867 17.5499 8.06695C17.7178 7.90526 17.8523 7.71183 17.9459 7.4977C18.0396 7.28359 18.0905 7.05299 18.0956 6.81908ZM18.0956 3.43154H20.0884V10.2067H18.1034V9.79008C17.5705 10.1547 16.9491 10.3661 16.3059 10.4016C15.6627 10.4371 15.0221 10.2954 14.4528 9.99178C13.8835 9.68807 13.4072 9.23392 13.075 8.67809C12.7427 8.12227 12.5673 7.48572 12.5673 6.83693C12.5673 6.18814 12.7427 5.55162 13.075 4.99577C13.4072 4.43991 13.8835 3.98575 14.4528 3.68209C15.0221 3.37843 15.6627 3.23675 16.3059 3.27228C16.9491 3.30781 17.5705 3.5192 18.1034 3.88374L18.0956 3.43154ZM30.1037 3.25304C29.7106 3.22958 29.3178 3.30335 28.9594 3.4679C28.6011 3.63245 28.2882 3.8828 28.048 4.19711V3.44344H26.0787V10.2067H28.0873V6.63661C28.0711 6.43291 28.0985 6.22807 28.1678 6.03601C28.2372 5.84394 28.3468 5.66917 28.4891 5.52353C28.6314 5.3779 28.8033 5.26484 28.9928 5.19202C29.1824 5.1192 29.3854 5.08833 29.5879 5.10151C30.4622 5.10151 30.9663 5.63304 30.9663 6.62075V10.1907H32.9591V5.89881C32.9591 4.31215 31.7264 3.25304 30.1196 3.25304H30.1037ZM9.69881 10.2067H11.7901V0.416869H9.69881V10.2067ZM0.526245 10.2067H2.7357V0.412903H0.526245V10.2067ZM8.26131 0.408936C8.26584 1.43887 8.06848 2.45959 7.68055 3.41255C7.29261 4.36551 6.72174 5.23198 6.00065 5.96227L9.05686 10.1987H6.3236L3.00351 5.60528L3.85421 4.95475C4.55218 4.42541 5.11761 3.73904 5.50533 2.95045C5.89306 2.16185 6.09235 1.29288 6.08729 0.412903L8.26131 0.408936Z" fill="white"/>
</svg>
