<svg width="58" height="12" viewBox="0 0 58 12" fill="none" xmlns="http://www.w3.org/2000/svg">
<path id="Vector" d="M45.7911 3.46254L41.8949 11.7962H40.2807L41.7362 8.68321L39.45 3.46254H41.1066L42.5765 6.95949L44.1812 3.46254H45.7911ZM30.9652 6.42159C30.9652 5.46457 30.2687 4.72757 29.4136 4.72757C28.5586 4.72757 27.862 5.44037 27.862 6.42159C27.862 7.3929 28.5586 8.11505 29.4136 8.11505C30.2687 8.11505 30.9652 7.37859 30.9652 6.42159ZM26.4446 11.7962V3.46254H27.8477V4.22981C28.2705 3.68695 28.8996 3.3531 29.6492 3.3531C31.1912 3.3531 32.4023 4.66761 32.4023 6.40618C32.4023 8.14475 31.1673 9.46974 29.6152 9.46974C28.8949 9.46974 28.3039 9.17598 27.8912 8.67771V11.7908H26.4446V11.7962ZM37.4655 6.42159C37.4655 5.42497 36.769 4.72757 35.9139 4.72757C35.0588 4.72757 34.3618 5.44037 34.3618 6.42159C34.3618 7.3929 35.0588 8.11505 35.9139 8.11505C36.769 8.11505 37.4655 7.41324 37.4655 6.42159ZM37.4751 9.38059V8.61281C37.0523 9.14634 36.4231 9.47464 35.6736 9.47464C34.1072 9.47464 32.9205 8.175 32.9205 6.42159C32.9205 4.68301 34.1554 3.35805 35.707 3.35805C36.4375 3.35805 37.0523 3.6919 37.4751 4.21001V3.46254H38.8782V9.38059H37.4751ZM23.9127 4.0406C23.9127 4.0406 24.2681 3.3531 25.1477 3.3531C25.5222 3.3531 25.763 3.4873 25.763 3.4873V4.99651C25.763 4.99651 25.2341 4.65826 24.7487 4.72757C24.2639 4.79741 23.9562 5.25557 23.9562 5.87322V9.3801H22.5054V3.46254H23.908V4.04006L23.9127 4.0406ZM56.6868 3.1287L55.0249 2.14253L53.338 1.14152C52.224 0.478761 50.8305 1.31092 50.8305 2.64579V2.86964C50.8305 2.99449 50.8931 3.10889 50.9987 3.16884L51.7822 3.63195C51.8316 3.66104 51.8876 3.67615 51.9444 3.67578C52.0012 3.67541 52.0571 3.65955 52.1061 3.62982C52.1552 3.60008 52.1959 3.5575 52.2242 3.50632C52.2524 3.45516 52.2672 3.3972 52.267 3.33825V2.80474C52.267 2.54074 52.5407 2.37683 52.762 2.50609L54.2992 3.42295L55.8317 4.3343C55.8822 4.36408 55.9242 4.4072 55.9535 4.45927C55.9827 4.51134 55.998 4.57051 55.998 4.63076C55.998 4.69101 55.9827 4.75018 55.9535 4.80225C55.9242 4.85432 55.8822 4.89745 55.8317 4.92721L54.2992 5.83857L52.762 6.75489C52.7115 6.78466 52.6545 6.80019 52.5965 6.79991C52.5385 6.79964 52.4816 6.78358 52.4315 6.75334C52.3814 6.7231 52.3398 6.67973 52.3109 6.62759C52.282 6.57545 52.2669 6.51636 52.267 6.45624V6.19223C52.267 4.85737 50.874 4.02026 49.7595 4.68796L48.0727 5.68897L46.4107 6.67514C45.2914 7.34285 45.2914 9.02146 46.4107 9.68921L48.0732 10.6753L49.7595 11.6764C50.8735 12.3391 52.267 11.507 52.267 10.1721V9.94818C52.2677 9.88728 52.2524 9.82719 52.2228 9.77452C52.1932 9.72186 52.1504 9.67843 52.0989 9.64904L51.3159 9.18594C51.2664 9.15671 51.2104 9.14145 51.1534 9.14177C51.0965 9.1421 51.0407 9.15786 50.9915 9.18766C50.9423 9.21738 50.9016 9.26008 50.8734 9.31127C50.8451 9.36254 50.8303 9.42059 50.8305 9.47962V10.0131C50.8305 10.2771 50.5568 10.441 50.3356 10.3118L48.7983 9.39495L47.2658 8.48356C47.2155 8.45367 47.1736 8.41051 47.1444 8.35845C47.1153 8.30639 47.1 8.24728 47.1 8.1871C47.1 8.12692 47.1153 8.06781 47.1444 8.01575C47.1736 7.9637 47.2155 7.92054 47.2658 7.89065L48.7989 6.97929L50.3356 6.06298C50.386 6.03321 50.443 6.01768 50.501 6.01795C50.559 6.01822 50.6159 6.03428 50.666 6.06453C50.7161 6.09477 50.7577 6.13813 50.7866 6.19028C50.8154 6.24241 50.8306 6.30151 50.8305 6.36163V6.62563C50.8305 7.9605 52.224 8.79761 53.3385 8.1299L55.0249 7.12889L56.6868 6.14218C57.8061 5.47007 57.8061 3.7964 56.6868 3.1287ZM6.37724 7.17344C6.07011 8.5336 4.94129 9.46974 3.48092 9.46974C1.79405 9.46974 0.526245 8.1552 0.526245 6.41663C0.526245 4.67806 1.81368 3.3531 3.50479 3.3531C4.93173 3.3531 6.04623 4.2892 6.36823 5.62462H4.88346C4.61929 5.09112 4.09572 4.73801 3.51487 4.73801C2.66878 4.73801 1.96273 5.46017 1.96273 6.41663C1.96273 7.3731 2.66878 8.09525 3.51434 8.09525C3.80585 8.09766 4.09169 8.01169 4.33672 7.84792C4.58175 7.68416 4.77529 7.44972 4.89354 7.17344H6.37724ZM7.04562 9.37512V1.02657H8.48212V9.37569L7.04562 9.37512ZM10.6438 6.81044C10.7445 7.6866 11.3498 8.17996 12.1137 8.17996C12.7194 8.17996 13.1852 7.8857 13.4589 7.41269H14.9294C14.5882 8.66781 13.5024 9.46974 12.0755 9.46974C10.3509 9.46974 9.14522 8.21461 9.14522 6.43148C9.14522 4.64836 10.423 3.35805 12.1089 3.35805C13.8096 3.35805 15.0397 4.65826 15.0397 6.43148C15.0397 6.56073 15.0302 6.68999 15.0062 6.80989L10.6438 6.81044ZM13.5072 5.88367C13.4064 5.11642 12.8011 4.65331 12.0946 4.65331C11.3885 4.65331 10.8072 5.10157 10.6581 5.88367H13.5072ZM20.1703 9.37512V8.60786C19.7475 9.14136 19.1232 9.46974 18.3689 9.46974C16.8077 9.46974 15.6211 8.16951 15.6211 6.41663C15.6211 4.67806 16.8507 3.3531 18.4028 3.3531C19.1327 3.3531 19.7475 3.682 20.1703 4.2045V3.4576H21.5734V9.37013H20.1703V9.37512ZM20.156 6.41608C20.156 5.42497 19.4595 4.72261 18.6044 4.72261C17.7493 4.72261 17.0528 5.42992 17.0528 6.41663C17.0528 7.38794 17.7493 8.1101 18.6044 8.1101C19.4595 8.1101 20.156 7.41269 20.156 6.41608Z" fill="white"/>
</svg>
