<svg width="26" height="19" viewBox="0 0 26 19" fill="none" xmlns="http://www.w3.org/2000/svg">
<path id="Union" fill-rule="evenodd" clip-rule="evenodd" d="M0.473724 18.7832V12.1819C1.73761 12.5124 3.0216 12.6266 4.32421 12.5467C4.9439 12.5084 5.55623 12.4295 6.13572 12.1868C6.95004 11.8451 7.47265 11.2406 7.51286 10.3606C7.55474 9.4429 7.55141 8.52324 7.54808 7.60352C7.54669 7.22072 7.5453 6.8379 7.54717 6.45521C7.54717 6.45135 7.54358 6.4475 7.53717 6.4406C7.53298 6.4361 7.52758 6.4303 7.52119 6.42236H4.83163V6.69445C4.83205 7.01767 4.83263 7.34092 4.83321 7.6642V7.66438V7.66457V7.66476V7.66503V7.66531V7.66559C4.83466 8.47406 4.83611 9.28264 4.83506 10.091C4.83408 10.8038 4.43501 11.3465 3.73688 11.4769C3.3285 11.5534 2.88138 11.5858 2.47986 11.5024C2.00053 11.4033 1.53239 11.2509 1.06431 11.0986L1.06429 11.0985L1.06427 11.0985L1.06426 11.0985C0.867841 11.0346 0.671435 10.9707 0.474215 10.9107V2.74444C0.478332 2.7351 0.483217 2.72586 0.48811 2.7166L0.488112 2.7166L0.488112 2.7166C0.498363 2.6972 0.508646 2.67775 0.511965 2.65717C0.653159 1.77373 1.12038 1.09619 1.83125 0.573086C2.24454 0.269126 2.72254 0.121558 3.21378 0.00634766H8.20461C8.2033 0.0361637 8.20155 0.0659249 8.1998 0.095668L8.1998 0.0956895C8.19632 0.154948 8.19284 0.214135 8.19284 0.273538C8.19235 5.12483 8.19235 9.97564 8.19235 14.8269V14.8411C8.46151 17.4468 6.76227 18.9911 4.26293 18.795C3.39903 18.7272 2.52815 18.7464 1.65735 18.7657H1.65733H1.65732H1.6573H1.65726H1.65722H1.65717C1.26246 18.7744 0.867758 18.7831 0.473724 18.7837V18.7832ZM11.9232 0.00634766H16.8655C16.8664 0.0294241 16.8676 0.0525004 16.8689 0.0755551V0.0755588V0.0755625V0.0755663C16.8711 0.117651 16.8734 0.159663 16.8734 0.201471C16.8734 1.67722 16.8737 3.15301 16.874 4.62882V4.62887V4.62892V4.62897V4.63314C16.8748 8.32145 16.8756 12.0099 16.8714 15.6981C16.8695 17.3939 15.4629 18.7744 13.7588 18.7769C12.8021 18.7782 11.8454 18.7777 10.8888 18.7773H10.8887H10.8886H10.8885C10.4104 18.7771 9.93233 18.7769 9.4543 18.7769H9.18613V11.6495C11.3722 12.9237 13.6563 12.6918 15.9625 12.1927V10.9126C15.8702 10.9467 15.7802 10.9802 15.6917 11.0132L15.6916 11.0133L15.6915 11.0133L15.6912 11.0134C15.5045 11.0831 15.3243 11.1503 15.1428 11.2141C14.253 11.5264 13.3494 11.698 12.4106 11.4554C11.4977 11.219 10.9413 10.5082 10.9006 9.52962C10.8564 8.47115 11.3197 7.71958 12.2395 7.41562C12.5292 7.31953 12.843 7.27051 13.1489 7.25237C14.0569 7.19844 14.903 7.46073 15.7272 7.80979C15.783 7.83327 15.8394 7.85545 15.9015 7.8799L15.9747 7.90882V6.61601C15.9525 6.60935 15.9306 6.60203 15.909 6.59478L15.909 6.59477L15.909 6.59476L15.9089 6.59476C15.8605 6.57854 15.8132 6.56267 15.7644 6.55522C15.5522 6.52347 15.3403 6.48916 15.1283 6.45484L15.1283 6.45483L15.1282 6.45483L15.1282 6.45483L15.1282 6.45482C14.6168 6.37203 14.1053 6.28922 13.5906 6.24243C12.563 6.14929 11.533 6.18115 10.5437 6.51306C10.2257 6.61982 9.91996 6.76222 9.61206 6.90562L9.61203 6.90564L9.612 6.90565L9.61197 6.90567C9.47029 6.97165 9.32816 7.03785 9.18417 7.10088C9.18348 7.08733 9.1824 7.07145 9.1812 7.05388C9.17816 7.00912 9.17437 6.9534 9.17437 6.89742C9.1742 6.46486 9.17461 6.03225 9.17503 5.59962V5.59958V5.59954V5.5995V5.59895C9.17581 4.77701 9.1766 3.95501 9.17339 3.13322C9.16897 2.10367 9.61413 1.3021 10.3966 0.665745C10.8427 0.303444 11.3688 0.121068 11.9232 0.00634766ZM25.5259 0.00634766H20.5841C20.0105 0.119597 19.4712 0.311779 19.0143 0.690748C18.2956 1.28592 17.8451 2.03062 17.8259 2.97878C17.8102 3.75265 17.8132 4.52677 17.8162 5.30096V5.30099V5.30103C17.8174 5.61074 17.8186 5.92046 17.8186 6.23018C17.8186 6.25547 17.8232 6.28057 17.829 6.31269C17.8324 6.33099 17.8361 6.35158 17.8397 6.37579H18.1309C18.5021 6.37579 18.8734 6.37489 19.2446 6.37399C20.2191 6.37164 21.1935 6.36929 22.1677 6.38314C22.5373 6.38853 22.9187 6.4405 23.2712 6.54885C23.936 6.75328 24.2674 7.23031 24.2655 7.86813C24.2635 8.49125 23.9056 8.96778 23.2644 9.19575C23.1731 9.22817 23.0801 9.25662 23.0155 9.27637L22.9638 9.29233C23.053 9.32456 23.1474 9.35481 23.2443 9.38587C23.4674 9.45735 23.704 9.53314 23.9203 9.64728C24.4081 9.90466 24.6342 10.3518 24.6268 10.8994C24.6194 11.4529 24.3483 11.8579 23.864 12.1197C23.482 12.3261 23.0693 12.3952 22.6378 12.3952C21.6067 12.3942 20.5757 12.3957 19.5447 12.3972H19.5445L19.5432 12.3972C19.0743 12.3979 18.6053 12.3986 18.1363 12.3991H17.8308V18.7656C17.8624 18.7669 17.8931 18.7687 17.9234 18.7704C17.9822 18.7737 18.0391 18.7769 18.0961 18.7769L19.0531 18.7773H19.0533H19.0534C20.1696 18.7778 21.2857 18.7784 22.402 18.7769C24.1282 18.7744 25.525 17.3806 25.5254 15.6534C25.5265 11.927 25.5263 8.20091 25.5261 4.47466V4.47461V4.47456L25.5259 0.00634766ZM19.3408 11.4362V9.80172C19.3639 9.79915 19.386 9.79611 19.4074 9.79316L19.4074 9.79316C19.4513 9.78711 19.4923 9.78146 19.5335 9.78113L19.6679 9.78075H19.6682C20.1605 9.77937 20.6526 9.77798 21.145 9.78113C21.6225 9.78407 21.9691 10.0949 21.999 10.5405C22.0294 10.9891 21.7044 11.4068 21.243 11.4289C20.8086 11.4497 20.3727 11.4451 19.9276 11.4404L19.9275 11.4404C19.7339 11.4383 19.5385 11.4362 19.3408 11.4362ZM19.8844 7.32894C19.7062 7.32967 19.5251 7.3304 19.3399 7.3304V7.33089V8.84824C19.519 8.84824 19.6975 8.85003 19.8752 8.85181C20.2938 8.856 20.709 8.86016 21.1229 8.84089C21.5151 8.82275 21.7843 8.46192 21.7676 8.06089C21.7505 7.65152 21.4612 7.34021 21.0646 7.33286C20.676 7.32572 20.2875 7.3273 19.8844 7.32894Z" fill="white"/>
</svg>
