<svg width="46" height="8" viewBox="0 0 46 8" fill="none" xmlns="http://www.w3.org/2000/svg">
<path fill-rule="evenodd" clip-rule="evenodd" d="M24.0944 7.8673C26.2747 7.89533 27.998 6.21227 28.0253 4.02831V4.02759C28.0519 1.91406 26.3473 0.177096 24.2079 0.139008C22.1066 0.102357 20.3337 1.8077 20.3028 3.8968C20.2697 6.09728 21.9334 7.83928 24.0944 7.8673ZM0.64502 0.405703V7.45488C0.906047 7.45488 1.16734 7.45659 1.42875 7.45829C2.03242 7.46224 2.63676 7.46618 3.24004 7.44913C3.92419 7.42973 4.53648 7.17892 5.09342 6.77432C7.11066 5.30901 6.8656 2.03343 4.66296 0.877852C3.72198 0.384485 2.73635 0.399271 1.74101 0.414203C1.37641 0.419673 1.01051 0.425162 0.64502 0.405703ZM4.7571 5.11138C4.1635 6.21738 3.14231 6.32014 2.01979 6.29714H2.0205V1.68201C2.86275 1.43264 3.97378 1.79628 4.56091 2.51133C5.1042 3.17248 5.18469 4.31441 4.7571 5.11138ZM43.9593 6.08052L43.9747 6.10108C44.3203 6.56358 44.6683 7.02921 45.0263 7.50807C44.8753 7.50807 44.7286 7.50879 44.585 7.50951C44.1759 7.51153 43.7926 7.51343 43.4101 7.49801C43.3246 7.49441 43.2276 7.36578 43.165 7.27523C42.8981 6.8868 42.6332 6.49694 42.3684 6.10707C42.1036 5.71721 41.8388 5.32734 41.5718 4.93892C41.5226 4.86734 41.4582 4.80608 41.394 4.7449C41.3654 4.71763 41.3367 4.69038 41.3095 4.66224L41.2634 4.68492L41.2175 4.70751V7.49154H39.8456V0.373372C40.1454 0.386331 40.4454 0.390121 40.7444 0.393898C41.4071 0.40227 42.065 0.410581 42.7058 0.518539C44.4227 0.808152 44.6167 2.25406 44.2775 3.32772C44.0619 4.01043 43.5121 4.3331 42.7949 4.52282C43.1758 5.03218 43.5491 5.53166 43.9247 6.03426L43.9552 6.07507L43.9593 6.08052ZM41.2312 1.54835V3.6971C41.2985 3.69581 41.366 3.69551 41.4332 3.69522C41.9627 3.69292 42.4752 3.6907 42.81 3.19836C43.0522 2.84263 43.0716 2.42007 42.8359 2.04925C42.5154 1.54451 42.0205 1.54716 41.51 1.5499C41.4173 1.5504 41.324 1.5509 41.2312 1.54835ZM38.874 0.422235H34.9912V7.48866H38.8776V6.30074H36.3897V4.37693H38.7993V3.19189H36.3825V1.61087H38.874V0.422235ZM30.9721 5.00568L30.9721 5.00564L30.9722 5.00554C31.0093 4.92602 31.0411 4.85785 31.0695 4.78787L31.3374 4.12505L31.3376 4.1244C31.8026 2.97394 32.2675 1.82376 32.7238 0.670043C32.8015 0.473135 32.8999 0.397677 33.1133 0.40702C33.3871 0.419099 33.6613 0.416726 33.9509 0.414219C34.0748 0.413147 34.2015 0.41205 34.3322 0.41205C34.3139 0.461321 34.2978 0.506297 34.2827 0.548266L34.2826 0.548519L34.2826 0.548625L34.2825 0.548974C34.252 0.634026 34.2259 0.706736 34.1956 0.77784C33.9539 1.35213 33.7117 1.92622 33.4695 2.50031C32.7842 4.12455 32.0989 5.74885 31.4245 7.37786C31.3052 7.66532 31.1435 7.71778 30.864 7.72497C30.5808 7.73216 30.4759 7.60927 30.3789 7.37427C29.687 5.69162 28.9893 4.01146 28.2914 2.33095L28.2888 2.32475C28.0678 1.79241 27.8467 1.26004 27.6258 0.727535C27.6019 0.670135 27.5808 0.611462 27.5544 0.537742C27.5411 0.500704 27.5264 0.459868 27.5094 0.413487C27.6347 0.413487 27.7578 0.412562 27.8792 0.41165C28.2241 0.409057 28.5553 0.406568 28.8848 0.425704C28.9682 0.430735 29.0738 0.582369 29.1162 0.688009C29.5612 1.78768 30.0001 2.89012 30.439 3.99237L30.4391 3.9926L30.4392 3.99285L30.4393 3.99315L30.7641 4.80871C30.7892 4.87158 30.8156 4.93384 30.8477 5.00958L30.8477 5.00968C30.8651 5.05079 30.8842 5.09588 30.9057 5.14719L30.9071 5.14648C30.9304 5.09506 30.9519 5.04898 30.9719 5.00619L30.9721 5.00568ZM9.50667 5.88823L9.05244 6.31444H9.051C9.71287 7.36079 10.8275 7.85809 12.014 7.65112C13.0136 7.47649 13.7761 6.73485 13.9112 5.80636C14.0793 4.65438 13.7251 3.98891 12.66 3.46358C12.5461 3.40746 12.4288 3.35862 12.3116 3.30979C12.2307 3.2761 12.1498 3.2424 12.07 3.20631C11.9888 3.16952 11.9072 3.1334 11.8256 3.09727C11.5916 2.99367 11.3574 2.88998 11.1315 2.77009C10.8656 2.62924 10.7858 2.3734 10.849 2.09457C10.9331 1.72303 11.2148 1.55415 11.567 1.48659C12.1347 1.37808 12.5874 1.61164 12.9906 2.01983C13.2109 1.73817 13.4143 1.47723 13.6194 1.21421L13.7107 1.09709C12.9453 0.443123 12.088 0.213157 11.1473 0.353293C9.90906 0.537266 9.16239 1.69285 9.46781 2.88723C9.65753 3.62887 10.254 3.92639 10.8807 4.19013C11.0167 4.24738 11.1559 4.2989 11.2951 4.35041L11.2951 4.35042L11.2952 4.35043C11.5596 4.44829 11.824 4.54612 12.0664 4.68312C12.6428 5.00795 12.6916 5.8157 12.1333 6.17C11.8595 6.34391 11.4599 6.40212 11.125 6.382C10.5796 6.34894 10.2123 5.97093 9.92559 5.49519L9.50667 5.88823ZM19.8845 2.28771L19.8831 2.28646C19.8831 2.14191 19.8819 2.00301 19.8808 1.86807V1.86792C19.8781 1.55729 19.8756 1.26764 19.8881 0.978345C19.8982 0.75341 19.8235 0.636989 19.6143 0.549315C18.7627 0.192149 17.891 0.158373 17.0193 0.416366C14.9575 1.02578 13.8724 3.28878 14.6435 5.32901C15.3715 7.25354 17.7983 8.23665 19.6776 7.36206C19.7602 7.32325 19.8702 7.22767 19.873 7.15509C19.8866 6.79409 19.885 6.43227 19.8834 6.0559V6.05587C19.8829 5.93175 19.8824 5.80605 19.8824 5.67828C18.4861 6.6312 17.2428 6.61179 16.443 5.66103C15.6036 4.66283 15.6338 3.15081 16.5076 2.22304C17.1829 1.50679 18.4601 1.04908 19.8831 2.28646V2.28771H19.8845ZM7.12579 0.433073V7.49016H8.47828V0.433073H7.12579Z" fill="white"/>
</svg>
